<?xml version="1.0" encoding="utf-8"?>
<!-- Generator: Adobe Illustrator 15.0.0, SVG Export Plug-In . SVG Version: 6.00 Build 0)  -->
<!DOCTYPE svg PUBLIC "-//W3C//DTD SVG 1.1//EN" "http://www.w3.org/Graphics/SVG/1.1/DTD/svg11.dtd">
<svg version="1.1" id="Layer_1" xmlns="http://www.w3.org/2000/svg" xmlns:xlink="http://www.w3.org/1999/xlink" x="0px" y="0px"
	 width="80px" height="80px" viewBox="0 0 80 80" enable-background="new 0 0 80 80" xml:space="preserve">
<path fill="none" stroke="#484E5D" stroke-width="0.0567" stroke-linecap="round" stroke-linejoin="round" stroke-miterlimit="10" d="
	M40,220.678"/>
<g>
	<path fill="#C1272D" d="M56.223,25.167L40,20.863l-16.221,4.305L14.633,36.71l9.146,11.545L40,52.559l16.223-4.303l9.145-11.545
		L56.223,25.167z M35.175,26.382l4.488-1.634l0.674,1.854l-3.814,1.387l-1.85,3.205l0.705,3.997l-1.941,0.343l-0.83-4.704
		L35.175,26.382z M54.703,44.867L40,49.838l-14.703-4.971l-4.164-8.157l4.164-8.154l6.747-3.364l-2.976,5.154l1.318,7.478
		l5.816,4.881h7.593l5.816-4.881l1.32-7.478l-2.978-5.154l6.747,3.364l8.165,8.154L54.703,44.867z"/>
	<g>
		<path fill="#C1272D" d="M76.479,7.083c-0.213-0.076-0.424-0.151-0.611-0.231c-11.881-4.195-29.463-4.814-34.57-4.905V5.29
			c2.119,0.038,6.268,0.168,11.33,0.605c9.039,0.78,16.664,2.191,22.061,4.084c0.23,0.094,0.455,0.175,0.654,0.246
			c0.139,0.051,0.596,0.227,0.596,0.227l0.021,0.165c0.017,0.125,0.028,0.3,0.028,0.532c0.013,2.759-1.508,27.723-3.986,37.615
			c-1.279,4.871-2.126,6.09-2.785,6.644c-0.711,0.59-6.145,4.84-12.098,9.2c-10.229,7.486-13.818,9.312-14.896,9.75
			c-0.332,0.119-0.639,0.203-0.925,0.273v3.42c0.593-0.109,1.343-0.287,2.12-0.572c6.129-2.428,26.675-18.455,27.938-19.508
			c1.569-1.307,2.621-3.578,3.881-8.377c2.6-10.318,4.109-35.527,4.099-38.457C79.318,8.113,77.938,7.613,76.479,7.083z"/>
		<path fill="#C1272D" d="M38.701,74.633c-0.29-0.072-0.601-0.158-0.938-0.279c-1.068-0.434-4.658-2.26-14.884-9.744
			c-6.004-4.395-11.4-8.62-12.097-9.2c-0.658-0.552-1.503-1.771-2.784-6.646c-2.471-9.841-3.999-34.844-3.99-37.616
			c0.002-0.229,0.016-0.402,0.029-0.526l0.02-0.169c0,0,0.459-0.174,0.609-0.229c0.195-0.072,0.415-0.151,0.658-0.248
			c5.381-1.888,13.003-3.299,22.043-4.08c5.067-0.438,9.218-0.567,11.334-0.605V1.947c-5.1,0.091-22.685,0.708-34.557,4.901
			C3.941,6.932,3.73,7.007,3.52,7.084c-1.463,0.529-2.842,1.029-2.853,4.053C0.656,14.07,2.168,39.284,4.762,49.592
			c1.258,4.801,2.309,7.07,3.881,8.381c1.318,1.101,21.717,17.043,27.931,19.504c0.783,0.287,1.535,0.467,2.128,0.576L38.701,74.633
			L38.701,74.633z"/>
	</g>
</g>
</svg>
