<?xml version="1.0" encoding="utf-8"?>
<!-- Generator: Adobe Illustrator 15.0.0, SVG Export Plug-In . SVG Version: 6.00 Build 0)  -->
<!DOCTYPE svg PUBLIC "-//W3C//DTD SVG 1.1//EN" "http://www.w3.org/Graphics/SVG/1.1/DTD/svg11.dtd">
<svg version="1.1" id="Layer_1" xmlns="http://www.w3.org/2000/svg" xmlns:xlink="http://www.w3.org/1999/xlink" x="0px" y="0px"
	 width="80px" height="80px" viewBox="0 0 80 80" enable-background="new 0 0 80 80" xml:space="preserve">
<path fill="none" stroke="#484E5D" stroke-width="0.0567" stroke-linecap="round" stroke-linejoin="round" stroke-miterlimit="10" d="
	M40,220.678"/>
<g>
	<g>
		<polygon fill="#C1272D" points="23.862,54.828 21.661,51.018 23.862,47.203 28.265,47.203 30.466,51.018 28.265,54.828 		"/>
		<polygon fill="#C1272D" points="37.799,54.828 35.599,51.018 37.799,47.203 42.202,47.203 44.403,51.018 42.202,54.828 		"/>
		<polygon fill="#C1272D" points="51.735,54.828 49.534,51.018 51.735,47.203 56.139,47.203 58.34,51.018 56.139,54.828 		"/>
		<polygon fill="#C1272D" points="51.735,40.891 49.534,37.08 51.735,33.266 56.139,33.266 58.34,37.08 56.139,40.891 		"/>
		<polygon fill="#C1272D" points="37.799,26.955 35.599,23.142 37.799,19.33 42.202,19.33 44.403,23.142 42.202,26.955 		"/>
	</g>
	<g>
		<path fill="#C1272D" d="M76.479,7.083c-0.213-0.076-0.424-0.151-0.612-0.231c-11.88-4.195-29.463-4.814-34.57-4.905V5.29
			c2.119,0.038,6.268,0.168,11.33,0.605c9.039,0.78,16.664,2.191,22.06,4.084c0.231,0.094,0.455,0.175,0.655,0.246
			c0.138,0.051,0.595,0.227,0.595,0.227l0.021,0.165c0.016,0.125,0.029,0.3,0.029,0.532c0.012,2.759-1.508,27.723-3.987,37.615
			c-1.28,4.871-2.126,6.09-2.785,6.643c-0.711,0.59-6.144,4.84-12.098,9.201c-10.228,7.486-13.818,9.311-14.896,9.75
			c-0.332,0.119-0.639,0.203-0.925,0.273v3.42c0.593-0.109,1.343-0.287,2.12-0.572c6.129-2.428,26.675-18.455,27.938-19.508
			c1.569-1.307,2.621-3.578,3.881-8.377c2.599-10.318,4.109-35.527,4.098-38.457C79.319,8.113,77.938,7.613,76.479,7.083z"/>
		<path fill="#C1272D" d="M38.701,74.633c-0.29-0.072-0.601-0.158-0.938-0.279c-1.069-0.434-4.658-2.26-14.885-9.744
			c-6.004-4.395-11.4-8.621-12.097-9.201c-0.658-0.551-1.503-1.77-2.784-6.646c-2.471-9.84-3.999-34.843-3.99-37.615
			c0.003-0.229,0.016-0.402,0.029-0.526l0.021-0.169c0,0,0.459-0.174,0.608-0.229c0.196-0.072,0.415-0.151,0.658-0.248
			c5.381-1.888,13.003-3.299,22.043-4.08c5.067-0.438,9.218-0.567,11.334-0.605V1.947c-5.1,0.091-22.685,0.708-34.556,4.901
			C3.941,6.932,3.731,7.007,3.52,7.084c-1.462,0.529-2.842,1.029-2.853,4.053C0.656,14.07,2.168,39.284,4.762,49.592
			c1.258,4.801,2.31,7.07,3.881,8.381c1.318,1.1,21.717,17.043,27.931,19.504c0.784,0.287,1.535,0.467,2.128,0.576V74.633z"/>
	</g>
</g>
</svg>
