<?xml version="1.0" encoding="utf-8"?>
<!-- Generator: Adobe Illustrator 15.0.0, SVG Export Plug-In . SVG Version: 6.00 Build 0)  -->
<!DOCTYPE svg PUBLIC "-//W3C//DTD SVG 1.1//EN" "http://www.w3.org/Graphics/SVG/1.1/DTD/svg11.dtd">
<svg version="1.1" id="Layer_1" xmlns="http://www.w3.org/2000/svg" xmlns:xlink="http://www.w3.org/1999/xlink" x="0px" y="0px"
	 width="80px" height="80px" viewBox="0 0 80 80" enable-background="new 0 0 80 80" xml:space="preserve">
<path fill="none" stroke="#484E5D" stroke-width="0.0567" stroke-linecap="round" stroke-linejoin="round" stroke-miterlimit="10" d="
	M40,220.678"/>
<g>
	<path fill="#C1272D" d="M57.102,49.238l-1.546-6.471l0.869-6.808l-0.771-1.497l-1.449-0.145l-1.158-1.835l-3.429-0.674H37.016
		c0,0,0.016-0.288,0.02-0.777l3.299-0.972l-3.337-0.623c-0.016-0.313-0.039-0.649-0.07-1.003l3.175-1.255l-3.361-0.318
		c-0.043-0.288-0.093-0.582-0.149-0.877l3.073-1.522l-3.44-0.039c-0.046-0.164-0.094-0.328-0.146-0.491l2.791-1.955l-3.357,0.474
		c-0.056-0.123-0.113-0.244-0.174-0.365l2.438-2.478l-3.286,1.098c-0.143-0.188-0.292-0.367-0.449-0.538l1.441-3.2l-2.694,2.163
		c-0.197-0.123-0.405-0.233-0.622-0.33l0.273-3.401l-1.819,2.961c-0.189-0.027-0.385-0.045-0.586-0.055L29.23,14.96l-0.826,3.441
		c-0.2,0.031-0.405,0.07-0.614,0.117l-1.92-2.949l0.363,3.408c-0.177,0.064-0.356,0.133-0.538,0.207l-2.798-2.164l1.515,3.205
		l0.532,0.767l-0.289,4.441l0.82,3.814v1.593l1.015,0.339v-1.208h0.386v1.208l0.918-0.339v-1.303l0.482-0.436v2.318l-1.811,3.138
		l2.101,7.05h0.579v4.684l-3.767,10.912h6.567l-0.241-5.408l4.489-9.945l7.581-0.049l2.993,5.166l-4.297,10.236h6.856l1.689-9.852
		l1.738-3.572l-0.676,5.311L57.102,49.238z M25.757,25.05c-0.354,0.155-0.75,0-0.75,0s0.24-0.523,0.523-0.58
		s0.622-0.085,0.622-0.085S26.11,24.895,25.757,25.05z"/>
	<g>
		<path fill="#C1272D" d="M76.479,7.083c-0.213-0.076-0.424-0.151-0.612-0.231c-11.88-4.195-29.463-4.814-34.57-4.905V5.29
			c2.119,0.038,6.268,0.168,11.33,0.605c9.039,0.78,16.664,2.191,22.06,4.084c0.231,0.094,0.455,0.175,0.655,0.246
			c0.138,0.051,0.595,0.227,0.595,0.227l0.021,0.165c0.016,0.125,0.029,0.3,0.029,0.532c0.012,2.759-1.508,27.723-3.987,37.615
			c-1.28,4.871-2.126,6.09-2.785,6.643c-0.711,0.59-6.144,4.84-12.098,9.201c-10.228,7.486-13.818,9.311-14.896,9.75
			c-0.332,0.119-0.639,0.203-0.925,0.273v3.42c0.593-0.109,1.343-0.287,2.12-0.572c6.129-2.428,26.675-18.455,27.938-19.508
			c1.569-1.307,2.621-3.578,3.881-8.377c2.599-10.318,4.109-35.527,4.098-38.457C79.319,8.113,77.938,7.613,76.479,7.083z"/>
		<path fill="#C1272D" d="M38.701,74.633c-0.29-0.072-0.601-0.158-0.938-0.279c-1.068-0.434-4.658-2.26-14.884-9.744
			c-6.004-4.395-11.401-8.621-12.097-9.201c-0.658-0.551-1.504-1.77-2.784-6.646c-2.472-9.84-3.999-34.843-3.99-37.615
			c0.003-0.229,0.015-0.402,0.029-0.526l0.021-0.169c0,0,0.459-0.174,0.608-0.229c0.196-0.072,0.415-0.151,0.658-0.248
			c5.381-1.888,13.003-3.299,22.043-4.08c5.067-0.438,9.218-0.567,11.334-0.605V1.947c-5.1,0.091-22.685,0.708-34.556,4.901
			C3.94,6.932,3.731,7.007,3.519,7.084c-1.461,0.529-2.842,1.029-2.852,4.053C0.656,14.07,2.168,39.284,4.761,49.592
			c1.258,4.801,2.311,7.07,3.881,8.381c1.319,1.1,21.717,17.043,27.932,19.504c0.783,0.287,1.535,0.467,2.128,0.576V74.633z"/>
	</g>
</g>
</svg>
