<?xml version="1.0" encoding="utf-8"?>
<!-- Generator: Adobe Illustrator 16.0.0, SVG Export Plug-In . SVG Version: 6.00 Build 0)  -->
<!DOCTYPE svg PUBLIC "-//W3C//DTD SVG 1.1//EN" "http://www.w3.org/Graphics/SVG/1.1/DTD/svg11.dtd">
<svg version="1.1" id="Layer_1" xmlns="http://www.w3.org/2000/svg" xmlns:xlink="http://www.w3.org/1999/xlink" x="0px" y="0px"
	 width="80px" height="80px" viewBox="0 0 80 80" enable-background="new 0 0 80 80" xml:space="preserve">
<path fill="none" stroke="#484E5D" stroke-width="0.0567" stroke-linecap="round" stroke-linejoin="round" stroke-miterlimit="10" d="
	M40,220.678"/>
<polygon fill="#336AF2" points="57.998,19.186 56.873,18.45 58.475,26.889 56.831,30.048 55.532,28.101 53.844,24.076 
	52.417,23.296 54.061,28.273 46.921,25.374 48.307,27.668 53.541,30.092 50.988,30.394 56.051,31.995 51.335,39.266 50.857,37.274 
	48.738,42.035 44.801,43.68 45.318,39.136 41.557,45.843 40,46.491 38.444,45.843 34.68,39.136 35.199,43.68 31.263,42.035 
	29.142,37.274 28.665,39.266 23.948,31.995 29.012,30.394 26.458,30.092 31.694,27.668 33.08,25.374 25.939,28.273 27.583,23.296 
	26.156,24.076 24.468,28.101 23.169,30.048 21.526,26.889 23.125,18.45 22.002,19.186 19.146,26.846 19.967,29.442 23.516,36.193 
	26.892,40.953 31.089,44.286 35.417,46.232 35.417,47.186 32.689,46.018 29.142,45.54 30.527,48.268 35.329,51.943 35.762,56.057 
	36.974,58.652 38.617,60.688 39.997,61.548 39.997,61.548 40,61.55 40.003,61.548 40.003,61.548 41.381,60.688 43.025,58.652 
	44.236,56.057 44.671,51.943 49.475,48.268 50.857,45.54 47.311,46.018 44.584,47.186 44.584,46.232 48.911,44.286 53.107,40.953 
	56.482,36.193 60.032,29.442 60.854,26.846 "/>
<g>
	<path fill="#336AF2" stroke="#FFFFFF" stroke-width="0.12" stroke-miterlimit="10" d="M39.222,78.102
		c-0.63-0.094-1.612-0.285-2.648-0.664C30.36,74.977,9.962,59.032,8.643,57.934c-1.571-1.311-2.623-3.58-3.881-8.381
		C2.169,39.244,0.657,14.03,0.668,11.098c0.01-3.024,1.39-3.524,2.852-4.053c0.212-0.077,0.422-0.153,0.626-0.236
		c12.312-4.349,30.775-4.852,35.076-4.91v3.342c-1.9,0.026-6.337,0.137-11.854,0.614c-9.04,0.782-16.662,2.193-22.043,4.081
		c-0.243,0.096-0.462,0.176-0.658,0.247c-0.15,0.055-0.609,0.229-0.609,0.229l-0.02,0.169c-0.014,0.124-0.027,0.297-0.029,0.527
		C4,13.879,5.528,38.882,7.999,48.723c1.281,4.877,2.126,6.096,2.784,6.645c0.696,0.58,6.093,4.806,12.097,9.203
		c10.226,7.484,13.815,9.309,14.884,9.744c0.552,0.197,1.068,0.322,1.459,0.396L39.222,78.102L39.222,78.102z"/>
	<path fill="#336AF2" stroke="#FFFFFF" stroke-width="0.12" stroke-miterlimit="10" d="M39.222,78.102
		c-0.63-0.094-1.612-0.285-2.648-0.664C30.36,74.977,9.962,59.032,8.643,57.934c-1.571-1.311-2.623-3.58-3.881-8.381
		C2.169,39.244,0.657,14.03,0.668,11.098c0.01-3.024,1.39-3.524,2.852-4.053c0.212-0.077,0.422-0.153,0.626-0.236
		c12.312-4.349,30.775-4.852,35.076-4.91v3.342c-1.9,0.026-6.337,0.137-11.854,0.614c-9.04,0.782-16.662,2.193-22.043,4.081
		c-0.243,0.096-0.462,0.176-0.658,0.247c-0.15,0.055-0.609,0.229-0.609,0.229l-0.02,0.169c-0.014,0.124-0.027,0.297-0.029,0.527
		C4,13.879,5.528,38.882,7.999,48.723c1.281,4.877,2.126,6.096,2.784,6.645c0.696,0.58,6.093,4.806,12.097,9.203
		c10.226,7.484,13.815,9.309,14.884,9.744c0.552,0.197,1.068,0.322,1.459,0.396L39.222,78.102L39.222,78.102z"/>
	<path fill="#336AF2" d="M40.773,74.711c0.391-0.074,0.904-0.197,1.449-0.393c1.079-0.44,4.668-2.264,14.896-9.75
		c5.954-4.361,11.387-8.611,12.098-9.202c0.659-0.552,1.505-1.771,2.785-6.642C74.48,38.832,76,13.868,75.988,11.109
		c0-0.232-0.014-0.407-0.029-0.532l-0.021-0.165c0,0-0.457-0.176-0.595-0.226c-0.2-0.072-0.424-0.153-0.655-0.246
		c-5.396-1.893-13.021-3.304-22.06-4.085c-5.514-0.476-9.952-0.588-11.854-0.613V1.899c4.303,0.057,22.769,0.561,35.093,4.914
		c0.19,0.079,0.401,0.155,0.614,0.231c1.459,0.529,2.84,1.029,2.852,4.053c0.011,2.931-1.499,28.14-4.096,38.458
		c-1.26,4.799-2.312,7.069-3.881,8.377c-1.263,1.053-21.809,17.08-27.938,19.508c-1.03,0.377-2.013,0.567-2.644,0.66V74.711z"/>
	<path fill="#336AF2" d="M40.773,74.711c0.391-0.074,0.904-0.197,1.449-0.393c1.079-0.44,4.668-2.264,14.896-9.75
		c5.954-4.361,11.387-8.611,12.098-9.202c0.659-0.552,1.505-1.771,2.785-6.642C74.48,38.832,76,13.868,75.988,11.109
		c0-0.232-0.014-0.407-0.029-0.532l-0.021-0.165c0,0-0.457-0.176-0.595-0.226c-0.2-0.072-0.424-0.153-0.655-0.246
		c-5.396-1.893-13.021-3.304-22.06-4.085c-5.514-0.476-9.952-0.588-11.854-0.613V1.899c4.303,0.057,22.769,0.561,35.093,4.914
		c0.19,0.079,0.401,0.155,0.614,0.231c1.459,0.529,2.84,1.029,2.852,4.053c0.011,2.931-1.499,28.14-4.096,38.458
		c-1.26,4.799-2.312,7.069-3.881,8.377c-1.263,1.053-21.809,17.08-27.938,19.508c-1.03,0.377-2.013,0.567-2.644,0.66V74.711z"/>
</g>
</svg>
