<?xml version="1.0" encoding="utf-8"?>
<!-- Generator: Adobe Illustrator 15.0.0, SVG Export Plug-In . SVG Version: 6.00 Build 0)  -->
<!DOCTYPE svg PUBLIC "-//W3C//DTD SVG 1.1//EN" "http://www.w3.org/Graphics/SVG/1.1/DTD/svg11.dtd">
<svg version="1.1" id="Layer_1" xmlns="http://www.w3.org/2000/svg" xmlns:xlink="http://www.w3.org/1999/xlink" x="0px" y="0px"
	 width="418.477px" height="107.775px" viewBox="0 0 418.477 107.775" enable-background="new 0 0 418.477 107.775"
	 xml:space="preserve">
<g>
	<g>
		<path fill="#AE272D" d="M54.359,14.331c-1.992,0.021-8.109,0.144-15.832,0.811c-9.477,0.818-17.658,2.145-23.977,3.875
			c0.604,10.568,2.424,34.021,4.955,44.154c0.82,3.114,1.383,4.58,1.658,5.197c2.094,1.662,8.572,6.684,15.473,11.736
			c11.16,8.171,16.012,11.006,17.723,11.906V14.331z"/>
		<path fill="#AE272D" d="M54.359,100.381c-0.598-0.103-1.395-0.278-2.23-0.579c-1.484-0.603-6.344-3.086-20.219-13.244
			c-8.148-5.967-15.523-11.74-16.479-12.537c-0.803-0.668-1.941-2.279-3.67-8.861C8.393,51.746,6.318,17.727,6.33,13.955
			c0.004-0.294,0.02-0.517,0.039-0.677c0.188-0.073,0.408-0.152,0.592-0.219c0.273-0.101,0.58-0.213,0.906-0.343
			c7.309-2.563,17.67-4.481,29.971-5.544c8.049-0.696,14.477-0.817,16.521-0.84V1C49.816,1.048,23.361,1.593,5.984,7.729
			C3.785,8.626,1.018,8.918,1,13.937c-0.012,3.498,2.012,38.298,5.596,52.549c1.834,6.996,3.322,9.881,5.42,11.629
			c2.1,1.75,29.816,23.348,38.211,26.67c1.699,0.622,3.275,0.881,4.133,0.985V100.381z"/>
		<g>
			<path fill="#C1272D" d="M71.537,15.142c-7.723-0.667-13.842-0.789-15.834-0.811v8.203c2.348,0.328,4.154,2.338,4.154,4.773
				s-1.807,4.449-4.154,4.773v29.064c2.348,0.327,4.154,2.337,4.154,4.772c0,2.438-1.807,4.445-4.154,4.774v21.318
				c1.713-0.9,6.562-3.735,17.725-11.906C80.33,75.052,86.807,70.032,88.9,68.368c0.275-0.617,0.836-2.083,1.656-5.197
				c2.529-10.131,4.354-33.586,4.959-44.154C89.193,17.286,81.014,15.96,71.537,15.142z M74.338,70.743
				c-2.668,0-4.828-2.158-4.828-4.825c0-2.665,2.16-4.825,4.828-4.825c2.666,0,4.826,2.16,4.826,4.825
				C79.164,68.585,77.004,70.743,74.338,70.743z M74.338,51.44c-2.668,0-4.828-2.161-4.828-4.826s2.16-4.828,4.828-4.828
				c2.666,0,4.826,2.163,4.826,4.828S77.004,51.44,74.338,51.44z"/>
			<path fill="#C1272D" d="M104.082,7.729C86.703,1.593,60.248,1.048,55.703,1v5.333c2.043,0.022,8.475,0.144,16.523,0.84
				c12.301,1.062,22.658,2.98,29.973,5.544c0.322,0.13,0.631,0.242,0.906,0.343c0.184,0.066,0.404,0.146,0.59,0.219
				c0.02,0.16,0.035,0.383,0.035,0.677c0.018,3.771-2.062,37.791-5.426,51.206c-1.73,6.582-2.871,8.191-3.668,8.859
				c-0.961,0.797-8.336,6.57-16.482,12.537C64.277,96.716,59.42,99.199,57.936,99.802c-0.838,0.301-1.635,0.477-2.232,0.579v5.389
				c0.859-0.104,2.438-0.363,4.133-0.985c8.395-3.322,36.113-24.92,38.211-26.67c2.1-1.748,3.584-4.633,5.422-11.629
				c3.586-14.251,5.609-49.051,5.598-52.549C109.045,8.918,106.277,8.626,104.082,7.729z"/>
		</g>
	</g>
	<g>
		<g>
			<path fill="#AE272D" d="M145.807,87.545h-1.07c-0.16,0-0.229-0.068-0.229-0.228V73.438c0-0.16,0.068-0.228,0.229-0.228h1.07
				c0.16,0,0.229,0.067,0.229,0.228v13.879C146.035,87.477,145.967,87.545,145.807,87.545z"/>
			<path fill="#AE272D" d="M157.816,87.545h-1.004l-0.203-0.114L150.5,76.196h-0.045l0.113,11.121c0,0.159-0.068,0.228-0.227,0.228
				h-1.072c-0.158,0-0.227-0.068-0.227-0.228V73.438c0-0.16,0.068-0.228,0.227-0.228h0.98l0.205,0.113l6.131,11.304h0.045
				l-0.137-11.189c0-0.16,0.068-0.228,0.229-0.228h1.094c0.16,0,0.227,0.067,0.227,0.228v13.879
				C158.043,87.477,157.977,87.545,157.816,87.545z"/>
			<path fill="#AE272D" d="M169.438,74.509h-5.947c-0.16,0-0.229,0.069-0.229,0.229v4.649c0,0.159,0.068,0.228,0.229,0.228h4.877
				c0.16,0,0.229,0.068,0.229,0.229v0.843c0,0.159-0.068,0.229-0.229,0.229h-4.877c-0.16,0-0.229,0.067-0.229,0.227v6.177
				c0,0.159-0.068,0.228-0.227,0.228h-1.072c-0.158,0-0.227-0.068-0.227-0.228V73.438c0-0.16,0.068-0.228,0.227-0.228h7.475
				c0.16,0,0.229,0.067,0.229,0.228v0.844C169.666,74.441,169.598,74.509,169.438,74.509z"/>
			<path fill="#AE272D" d="M175.998,87.772h-0.705c-2.416,0-3.967-1.504-3.967-3.737v-7.338c0-2.233,1.551-3.737,3.967-3.737h0.705
				c2.416,0,3.988,1.527,3.988,3.737v7.338C179.986,86.269,178.414,87.772,175.998,87.772z M178.438,76.697
				c0-1.345-1.072-2.415-2.439-2.415h-0.705c-1.369,0-2.416,1.048-2.416,2.415v7.338c0,1.367,1.07,2.438,2.416,2.438h0.705
				c1.322,0,2.439-1.094,2.439-2.438V76.697z"/>
			<path fill="#AE272D" d="M191.428,87.362c0,0.114-0.092,0.183-0.229,0.183h-1.23c-0.113-0.046-0.182-0.091-0.203-0.159
				l-2.189-6.336c-0.021-0.046-0.068-0.09-0.182-0.136h-2.871c-0.16,0-0.229,0.067-0.229,0.227v6.177
				c0,0.159-0.068,0.228-0.229,0.228h-1.07c-0.16,0-0.229-0.068-0.229-0.228V73.438c0-0.16,0.068-0.228,0.229-0.228h4.42
				c2.439,0,3.988,1.55,3.988,3.942v0.25c0,0.798-0.479,1.756-1.367,2.507c-0.5,0.411-0.934,0.456-0.934,0.685
				c0,0.022,0.023,0.045,0.023,0.068l2.277,6.586C191.428,87.294,191.428,87.317,191.428,87.362z M189.879,76.925
				c0-1.344-1.094-2.416-2.463-2.416h-2.893c-0.16,0-0.229,0.069-0.229,0.229v4.649c0,0.159,0.068,0.228,0.229,0.228h2.893
				c1.391,0,2.463-1.071,2.463-2.461V76.925z"/>
			<path fill="#AE272D" d="M200.338,85.267c-0.023,0.045-0.092,0.113-0.205,0.136h-0.365c-0.09,0-0.158-0.045-0.205-0.136
				l-3.781-9.002l0.135,11.053c0,0.159-0.068,0.228-0.227,0.228h-1.072c-0.158,0-0.227-0.068-0.227-0.228V73.438
				c0-0.16,0.068-0.228,0.227-0.228h1.049c0.115,0.022,0.182,0.091,0.205,0.136l4.057,9.572h0.068l4.033-9.572
				c0.023-0.068,0.092-0.113,0.205-0.136h1.072c0.158,0,0.227,0.067,0.227,0.228v13.879c0,0.159-0.068,0.228-0.227,0.228h-1.072
				c-0.158,0-0.227-0.068-0.227-0.228l0.137-11.098L200.338,85.267z"/>
			<path fill="#AE272D" d="M217.383,87.34c0,0.137-0.09,0.205-0.25,0.205h-1.162c-0.137,0-0.205-0.046-0.229-0.159l-0.889-3.146
				c-0.021-0.114-0.09-0.136-0.227-0.136h-4.285c-0.137,0-0.205,0.021-0.229,0.136l-0.889,3.146
				c-0.021,0.113-0.113,0.159-0.227,0.159h-1.162c-0.16,0-0.252-0.068-0.252-0.205c0-0.022,0.023-0.046,0.023-0.091l4.215-13.879
				c0.047-0.113,0.092-0.159,0.229-0.159h0.865c0.115,0,0.184,0.046,0.229,0.159l4.217,13.879
				C217.361,87.294,217.383,87.317,217.383,87.34z M212.803,76.651c-0.021-0.091-0.113-0.387-0.25-0.889h-0.092
				c-0.09,0.365-0.182,0.661-0.25,0.889l-1.619,5.857c0,0.045-0.021,0.068-0.021,0.091c0,0.138,0.09,0.205,0.25,0.205h3.281
				c0.16,0,0.252-0.067,0.252-0.205c0-0.022-0.023-0.068-0.023-0.091L212.803,76.651z"/>
			<path fill="#AE272D" d="M224.742,74.509h-2.758c-0.158,0-0.227,0.069-0.227,0.229v12.58c0,0.159-0.068,0.228-0.229,0.228h-1.07
				c-0.16,0-0.229-0.068-0.229-0.228v-12.58c0-0.159-0.068-0.229-0.229-0.229h-2.758c-0.158,0-0.227-0.067-0.227-0.227v-0.844
				c0-0.16,0.068-0.228,0.227-0.228h7.498c0.16,0,0.229,0.067,0.229,0.228v0.844C224.971,74.441,224.902,74.509,224.742,74.509z"/>
			<path fill="#AE272D" d="M228.412,87.545h-1.072c-0.158,0-0.227-0.068-0.227-0.228V73.438c0-0.16,0.068-0.228,0.227-0.228h1.072
				c0.16,0,0.229,0.067,0.229,0.228v13.879C228.641,87.477,228.572,87.545,228.412,87.545z"/>
			<path fill="#AE272D" d="M236.088,87.772h-0.707c-2.414,0-3.965-1.504-3.965-3.737v-7.338c0-2.233,1.551-3.737,3.965-3.737h0.707
				c2.416,0,3.988,1.527,3.988,3.737v7.338C240.076,86.269,238.504,87.772,236.088,87.772z M238.527,76.697
				c0-1.345-1.072-2.415-2.439-2.415h-0.707c-1.367,0-2.414,1.048-2.414,2.415v7.338c0,1.367,1.07,2.438,2.414,2.438h0.707
				c1.322,0,2.439-1.094,2.439-2.438V76.697z"/>
			<path fill="#AE272D" d="M251.631,87.545h-1.002l-0.205-0.114l-6.107-11.234h-0.045l0.113,11.121c0,0.159-0.068,0.228-0.229,0.228
				h-1.07c-0.16,0-0.229-0.068-0.229-0.228V73.438c0-0.16,0.068-0.228,0.229-0.228h0.98l0.205,0.113l6.129,11.304h0.047
				l-0.137-11.189c0-0.16,0.068-0.228,0.227-0.228h1.094c0.16,0,0.229,0.067,0.229,0.228v13.879
				C251.859,87.477,251.791,87.545,251.631,87.545z"/>
			<path fill="#AE272D" d="M260.223,76.628c0,1.026,0.705,1.778,2.164,2.463c1.141,0.546,2.188,0.979,3.01,1.595
				c1.07,0.82,1.594,1.937,1.594,3.35c0,2.233-1.549,3.737-3.988,3.737h-0.98c-2.164,0-3.531-1.275-3.531-1.982
				c0-0.092,0.045-0.137,0.137-0.183l0.957-0.501c0.045-0.022,0.092-0.022,0.113-0.022c0.092,0,0.115,0.046,0.184,0.114
				c0.637,0.66,1.094,1.275,2.141,1.275h0.98c1.367,0,2.461-1.049,2.461-2.438c0-1.526-1.162-2.119-3.1-3.054
				c-2.348-1.139-3.691-1.96-3.691-4.284c0-2.233,1.551-3.737,3.967-3.737h0.363c2.143,0,3.555,1.276,3.555,2.006
				c0,0.068-0.068,0.113-0.158,0.16l-0.957,0.478c-0.045,0.022-0.092,0.022-0.115,0.022c-0.068,0-0.113-0.022-0.158-0.091
				c-0.639-0.661-1.117-1.253-2.166-1.253h-0.363C261.293,74.282,260.223,75.308,260.223,76.628z"/>
			<path fill="#AE272D" d="M277.199,87.545h-7.475c-0.16,0-0.229-0.068-0.229-0.228V73.438c0-0.16,0.068-0.228,0.229-0.228h7.475
				c0.16,0,0.229,0.067,0.229,0.228v0.844c0,0.159-0.068,0.227-0.229,0.227h-5.947c-0.16,0-0.229,0.069-0.229,0.229v4.649
				c0,0.159,0.068,0.228,0.229,0.228h4.877c0.158,0,0.227,0.068,0.227,0.229v0.843c0,0.159-0.068,0.229-0.227,0.229h-4.877
				c-0.16,0-0.229,0.067-0.229,0.227v4.878c0,0.16,0.068,0.228,0.229,0.228h5.947c0.16,0,0.229,0.091,0.229,0.228v0.844
				C277.428,87.477,277.359,87.545,277.199,87.545z"/>
			<path fill="#AE272D" d="M287.568,85.768c0,0.729-1.391,2.005-3.533,2.005h-0.707c-2.414,0-3.965-1.504-3.965-3.737v-7.338
				c0-2.233,1.551-3.737,3.965-3.737h0.707c2.096,0,3.555,1.23,3.555,1.982c0,0.068-0.068,0.137-0.16,0.184l-0.957,0.478
				c-0.045,0.022-0.09,0.022-0.113,0.022c-0.068,0-0.092-0.022-0.16-0.091c-0.682-0.661-1.184-1.253-2.164-1.253h-0.707
				c-1.367,0-2.414,1.048-2.414,2.415v7.338c0,1.367,1.07,2.438,2.414,2.438h0.707c0.525,0,1.117-0.228,1.482-0.57
				c0.5-0.479,0.705-0.819,0.842-0.819c0.023,0,0.068,0,0.113,0.022l0.957,0.479C287.545,85.63,287.568,85.677,287.568,85.768z"/>
			<path fill="#AE272D" d="M294.408,87.772h-0.705c-2.416,0-3.967-1.504-3.967-3.737V73.438c0-0.16,0.068-0.228,0.229-0.228h1.094
				c0.16,0,0.229,0.067,0.229,0.228v10.597c0,1.367,1.07,2.438,2.416,2.438h0.705c1.322,0,2.439-1.094,2.439-2.438V73.438
				c0-0.16,0.068-0.228,0.227-0.228h1.096c0.158,0,0.227,0.067,0.227,0.228v10.597C298.396,86.269,296.824,87.772,294.408,87.772z"
				/>
			<path fill="#AE272D" d="M310.383,87.362c0,0.114-0.09,0.183-0.227,0.183h-1.232c-0.113-0.046-0.182-0.091-0.203-0.159
				l-2.189-6.336c-0.021-0.046-0.068-0.09-0.182-0.136h-2.871c-0.16,0-0.229,0.067-0.229,0.227v6.177
				c0,0.159-0.068,0.228-0.227,0.228h-1.072c-0.158,0-0.229-0.068-0.229-0.228V73.438c0-0.16,0.07-0.228,0.229-0.228h4.422
				c2.438,0,3.988,1.55,3.988,3.942v0.25c0,0.798-0.48,1.756-1.367,2.507c-0.502,0.411-0.936,0.456-0.936,0.685
				c0,0.022,0.023,0.045,0.023,0.068l2.279,6.586C310.383,87.294,310.383,87.317,310.383,87.362z M308.834,76.925
				c0-1.344-1.094-2.416-2.461-2.416h-2.895c-0.16,0-0.229,0.069-0.229,0.229v4.649c0,0.159,0.068,0.228,0.229,0.228h2.895
				c1.391,0,2.461-1.071,2.461-2.461V76.925z"/>
			<path fill="#AE272D" d="M314.1,87.545h-1.07c-0.16,0-0.229-0.068-0.229-0.228V73.438c0-0.16,0.068-0.228,0.229-0.228h1.07
				c0.16,0,0.229,0.067,0.229,0.228v13.879C314.328,87.477,314.26,87.545,314.1,87.545z"/>
			<path fill="#AE272D" d="M324.195,74.509h-2.758c-0.16,0-0.229,0.069-0.229,0.229v12.58c0,0.159-0.068,0.228-0.227,0.228h-1.072
				c-0.16,0-0.229-0.068-0.229-0.228v-12.58c0-0.159-0.068-0.229-0.227-0.229h-2.758c-0.16,0-0.229-0.067-0.229-0.227v-0.844
				c0-0.16,0.068-0.228,0.229-0.228h7.498c0.158,0,0.227,0.067,0.227,0.228v0.844C324.422,74.441,324.354,74.509,324.195,74.509z"/>
			<path fill="#AE272D" d="M331.365,80.914v6.403c0,0.159-0.068,0.228-0.227,0.228h-1.117c-0.16,0-0.229-0.068-0.229-0.228v-6.403
				l-3.896-7.361c-0.045-0.069-0.045-0.114-0.045-0.159c0-0.115,0.068-0.183,0.25-0.183h1.299l0.205,0.136l2.803,5.744
				c0.047,0.113,0.139,0.159,0.205,0.159c0.068,0,0.16-0.046,0.205-0.159l2.758-5.744l0.205-0.136h1.299
				c0.16,0,0.25,0.067,0.25,0.183c0,0.045-0.021,0.09-0.045,0.159L331.365,80.914z"/>
		</g>
		<g>
			<path fill="#AE272D" d="M179.396,19.771c0.23,0.363,0.346,0.699,0.346,1.003v37.693h-2.869c-0.457,0-0.752-0.099-0.891-0.289
				c-0.133-0.188-0.217-0.381-0.254-0.573V19.228h2.408C178.748,19.228,179.17,19.407,179.396,19.771z"/>
			<path fill="#AE272D" d="M205.629,53.761c0,1.339-0.473,2.488-1.408,3.441c-0.936,0.957-2.074,1.474-3.414,1.551h-2.521
				c-1.379,0-2.547-0.487-3.502-1.467c-0.955-0.975-1.432-2.148-1.432-3.525V23.986c0-1.376,0.477-2.554,1.432-3.529
				s2.123-1.461,3.502-1.461h2.521c1.34,0.075,2.479,0.591,3.414,1.548s1.408,2.106,1.408,3.442v2.524
				c0,0.65-0.119,1.141-0.35,1.463c-0.225,0.324-0.477,0.566-0.744,0.715c-0.189,0.082-0.604,0.262-1.23,0.547
				c-0.635,0.287-1.199,0.547-1.693,0.777V24.62c0-0.578-0.211-1.072-0.631-1.494c-0.422-0.42-0.92-0.631-1.49-0.631
				c-0.615,0-1.119,0.211-1.521,0.631c-0.4,0.422-0.604,0.916-0.604,1.494v28.51c0,0.572,0.203,1.068,0.604,1.492
				c0.402,0.422,0.906,0.631,1.521,0.631c0.57,0,1.068-0.209,1.49-0.631c0.42-0.424,0.631-0.92,0.631-1.492V41.484h-0.17
				c-0.193,0-0.367-0.059-0.52-0.171c-0.152-0.077-0.307-0.201-0.457-0.373c-0.154-0.174-0.307-0.41-0.459-0.721l-1.379-2.752h5.051
				c0.572,0,1.041,0.162,1.404,0.488s0.547,0.872,0.547,1.637V53.761z"/>
			<path fill="#AE272D" d="M232.146,19.228V53.82c-0.039,1.335-0.516,2.473-1.436,3.411c-0.916,0.938-2.045,1.444-3.383,1.521
				h-3.098c-0.689,0-1.342-0.137-1.951-0.404c-0.613-0.267-1.139-0.621-1.578-1.062c-0.439-0.435-0.795-0.953-1.061-1.546
				c-0.27-0.591-0.402-1.233-0.402-1.92V20.313c0-0.303,0.125-0.562,0.369-0.773c0.25-0.208,0.529-0.312,0.834-0.312h2.814v33.896
				c0,0.578,0.197,1.074,0.602,1.498c0.398,0.42,0.889,0.631,1.461,0.631h0.633c0.609,0,1.125-0.203,1.547-0.604
				c0.424-0.401,0.635-0.91,0.635-1.525V19.228H232.146z"/>
			<path fill="#AE272D" d="M336.773,20.544c0.953,0.957,1.434,2.106,1.434,3.442V53.82c0,0.687-0.125,1.317-0.375,1.892
				c-0.248,0.574-0.592,1.081-1.029,1.52c-0.441,0.439-0.957,0.795-1.551,1.062s-1.215,0.419-1.863,0.46h-3.098
				c-1.379,0-2.555-0.479-3.529-1.436c-0.975-0.956-1.463-2.125-1.463-3.497V23.986c0-1.376,0.488-2.554,1.463-3.529
				s2.15-1.461,3.529-1.461h3.098C334.689,19.071,335.814,19.587,336.773,20.544z M333.559,54.622
				c0.422-0.424,0.633-0.939,0.633-1.548V24.675c0-0.611-0.211-1.127-0.633-1.549c-0.42-0.42-0.938-0.631-1.547-0.631h-0.633
				c-0.572,0.036-1.061,0.26-1.461,0.659c-0.404,0.402-0.602,0.909-0.602,1.521v28.399c0,0.608,0.197,1.118,0.602,1.519
				c0.4,0.401,0.906,0.622,1.52,0.66h0.574C332.621,55.253,333.139,55.044,333.559,54.622z"/>
			<path fill="#AE272D" d="M360.77,19.6c0.609,0.248,1.154,0.603,1.633,1.06c0.48,0.459,0.861,0.984,1.148,1.578
				c0.289,0.593,0.432,1.233,0.432,1.923v10.151c0,1.914-0.479,3.482-1.436,4.707c-0.957,1.223-2.41,1.835-4.363,1.835h-2.35v17.613
				h-2.869c-0.496,0-0.812-0.104-0.947-0.316c-0.133-0.212-0.201-0.392-0.201-0.546V19.228h7.002
				C359.506,19.228,360.154,19.352,360.77,19.6z M360.08,24.962c-0.078-0.535-0.316-0.994-0.717-1.377
				c-0.402-0.381-0.871-0.574-1.408-0.574h-2.121v13.826h2.121c0.537,0,1.006-0.18,1.408-0.544c0.4-0.362,0.639-0.813,0.717-1.348
				V24.962z"/>
			<path fill="#AE272D" d="M415.004,27.831c-0.188,0.075-0.59,0.258-1.217,0.545c-0.621,0.288-1.176,0.543-1.666,0.773v-4.475
				c0-0.611-0.213-1.127-0.631-1.549c-0.42-0.42-0.936-0.631-1.551-0.631c-0.57,0-1.068,0.211-1.49,0.631
				c-0.42,0.422-0.629,0.938-0.629,1.549v3.729c0.037,0.46,0.131,0.957,0.287,1.49c0.111,0.461,0.285,1.017,0.51,1.666
				c0.229,0.652,0.551,1.357,0.969,2.121l4.727,8.95c0.305,0.727,0.592,1.435,0.855,2.124c0.227,0.609,0.438,1.28,0.627,2.008
				c0.189,0.727,0.283,1.416,0.283,2.064v4.934c0,1.377-0.486,2.551-1.453,3.525c-0.973,0.979-2.145,1.467-3.512,1.467h-2.516
				c-1.33-0.077-2.463-0.584-3.398-1.521c-0.932-0.938-1.398-2.076-1.398-3.411V49.8c0-0.646,0.119-1.137,0.35-1.459
				c0.229-0.326,0.473-0.566,0.744-0.717c0.189-0.079,0.59-0.26,1.203-0.545c0.611-0.289,1.182-0.547,1.723-0.777v6.872
				c0,0.577,0.209,1.068,0.629,1.472c0.422,0.404,0.92,0.607,1.49,0.607c0.615,0,1.119-0.203,1.521-0.604
				c0.4-0.401,0.604-0.91,0.604-1.525V48.7c-0.037-0.459-0.137-0.956-0.285-1.49c-0.119-0.46-0.281-1.016-0.492-1.669
				c-0.207-0.648-0.525-1.356-0.943-2.128l-4.82-9.021c-0.344-0.727-0.629-1.435-0.859-2.125c-0.229-0.611-0.432-1.278-0.602-2.009
				c-0.174-0.728-0.262-1.417-0.262-2.069v-4.023c0-0.688,0.133-1.338,0.402-1.95c0.266-0.614,0.617-1.161,1.055-1.64
				s0.959-0.86,1.568-1.148c0.609-0.287,1.258-0.431,1.945-0.431h2.51c0.646,0,1.268,0.144,1.857,0.431
				c0.592,0.285,1.094,0.67,1.514,1.148s0.762,1.031,1.027,1.662c0.268,0.631,0.398,1.27,0.398,1.923v1.491
				c0,0.652-0.113,1.137-0.336,1.459C415.512,27.44,415.27,27.677,415.004,27.831z"/>
			<path fill="#AE272D" d="M159.596,19.228c-0.727,0-1.199,0.207-1.408,0.627c-0.211,0.423-0.336,0.689-0.371,0.805l-4.418,22.546
				l-4.648-22.546c-0.076-0.346-0.211-0.621-0.4-0.83c-0.193-0.211-0.383-0.354-0.574-0.432c-0.23-0.115-0.496-0.17-0.801-0.17
				h-2.467v39.239h4.014V38.214l2.912,13.37h3.639l3.031-13.37v20.253h4.014V19.228H159.596z"/>
			<path fill="#AE272D" d="M311.688,54.447h-9.037V20.433c0-0.348-0.119-0.635-0.346-0.863c-0.23-0.23-0.518-0.342-0.859-0.342
				h-2.812v39.239h10.24L311.688,54.447z"/>
			<path fill="#AE272D" d="M258.355,54.44l-8.586,0.007V40.854c0-0.267,0.096-0.497,0.285-0.689
				c0.193-0.192,0.424-0.286,0.689-0.286l2.598,0.023l2.787-3.98h-6.359V24.163c0-0.271,0.096-0.488,0.285-0.662
				c0.193-0.174,0.424-0.261,0.689-0.261h4.4l2.809-4.013h-10.992c-0.311,0-0.584,0.104-0.832,0.312
				c-0.248,0.211-0.373,0.488-0.373,0.834v38.093h9.779L258.355,54.44z"/>
			<path fill="#AE272D" d="M390.191,54.44l-8.586,0.007V40.854c0-0.267,0.096-0.497,0.285-0.689
				c0.193-0.192,0.424-0.286,0.689-0.286l2.598,0.023l2.787-3.98h-6.359V24.163c0-0.271,0.096-0.488,0.285-0.662
				c0.193-0.174,0.424-0.261,0.689-0.261h4.4l2.809-4.013h-10.992c-0.311,0-0.584,0.104-0.832,0.312
				c-0.248,0.211-0.373,0.488-0.373,0.834v38.093h9.779L390.191,54.44z"/>
			<path fill="#AE272D" d="M285.023,54.447h-9.041V20.433c0-0.348-0.115-0.635-0.344-0.863c-0.23-0.23-0.52-0.342-0.861-0.342
				h-2.812v39.239h10.244L285.023,54.447z"/>
		</g>
	</g>
</g>
</svg>
