<?xml version="1.0" encoding="utf-8"?>
<!-- Generator: Adobe Illustrator 15.0.0, SVG Export Plug-In . SVG Version: 6.00 Build 0)  -->
<!DOCTYPE svg PUBLIC "-//W3C//DTD SVG 1.1//EN" "http://www.w3.org/Graphics/SVG/1.1/DTD/svg11.dtd">
<svg version="1.1" id="Layer_1" xmlns="http://www.w3.org/2000/svg" xmlns:xlink="http://www.w3.org/1999/xlink" x="0px" y="0px"
	 width="80px" height="80px" viewBox="0 0 80 80" enable-background="new 0 0 80 80" xml:space="preserve">
<path fill="none" stroke="#484E5D" stroke-width="0.0567" stroke-linecap="round" stroke-linejoin="round" stroke-miterlimit="10" d="
	M40,220.678"/>
<g>
	<g>
		<path fill="#336AF2" d="M21.339,25.168c0,0.288-0.049,0.558-0.148,0.809c-0.098,0.252-0.236,0.471-0.418,0.658
			c-0.18,0.187-0.398,0.334-0.652,0.44c-0.254,0.107-0.537,0.161-0.85,0.161s-0.596-0.054-0.852-0.161
			c-0.254-0.106-0.471-0.254-0.652-0.44c-0.18-0.188-0.32-0.406-0.418-0.658c-0.098-0.251-0.146-0.521-0.146-0.809v-2.298
			c0-0.288,0.049-0.559,0.146-0.81s0.238-0.471,0.418-0.657c0.182-0.187,0.398-0.334,0.652-0.441
			c0.256-0.107,0.539-0.161,0.852-0.161s0.596,0.054,0.85,0.161s0.473,0.255,0.652,0.441c0.182,0.187,0.32,0.406,0.418,0.657
			c0.1,0.251,0.148,0.521,0.148,0.81V25.168z M19.95,22.18c0.043-0.067,0.057-0.142,0.041-0.225s-0.047-0.137-0.096-0.161
			c-0.086-0.049-0.182-0.089-0.285-0.119c-0.104-0.031-0.219-0.046-0.34-0.046c-0.197,0-0.369,0.033-0.52,0.101
			s-0.275,0.159-0.377,0.276c-0.102,0.116-0.176,0.252-0.227,0.409c-0.049,0.156-0.072,0.323-0.072,0.501V24.8
			c0,0.153,0.037,0.233,0.109,0.239c0.074,0.007,0.139-0.036,0.193-0.129L19.95,22.18z M20.466,23.219
			c0-0.141-0.035-0.216-0.105-0.225c-0.072-0.01-0.135,0.035-0.189,0.133l-1.545,2.666c-0.072,0.129-0.098,0.233-0.072,0.312
			c0.023,0.08,0.061,0.135,0.109,0.166c0.166,0.092,0.367,0.138,0.607,0.138c0.195,0,0.369-0.034,0.52-0.102
			s0.275-0.159,0.377-0.275c0.1-0.116,0.176-0.253,0.225-0.409s0.074-0.323,0.074-0.501V23.219z"/>
		<path fill="#336AF2" d="M27.269,25.168c0,0.288-0.049,0.558-0.148,0.809c-0.098,0.252-0.236,0.471-0.418,0.658
			c-0.18,0.187-0.398,0.334-0.652,0.44c-0.254,0.107-0.537,0.161-0.85,0.161s-0.596-0.054-0.852-0.161
			c-0.254-0.106-0.471-0.254-0.652-0.44c-0.18-0.188-0.32-0.406-0.418-0.658c-0.098-0.251-0.146-0.521-0.146-0.809v-2.298
			c0-0.288,0.049-0.559,0.146-0.81s0.238-0.471,0.418-0.657c0.182-0.187,0.398-0.334,0.652-0.441
			c0.256-0.107,0.539-0.161,0.852-0.161s0.596,0.054,0.85,0.161s0.473,0.255,0.652,0.441c0.182,0.187,0.32,0.406,0.418,0.657
			c0.1,0.251,0.148,0.521,0.148,0.81V25.168z M25.88,22.18c0.043-0.067,0.057-0.142,0.041-0.225s-0.047-0.137-0.096-0.161
			c-0.086-0.049-0.182-0.089-0.285-0.119c-0.104-0.031-0.219-0.046-0.34-0.046c-0.197,0-0.369,0.033-0.52,0.101
			s-0.275,0.159-0.377,0.276c-0.102,0.116-0.176,0.252-0.227,0.409c-0.049,0.156-0.072,0.323-0.072,0.501V24.8
			c0,0.153,0.037,0.233,0.109,0.239c0.074,0.007,0.139-0.036,0.193-0.129L25.88,22.18z M26.396,23.219
			c0-0.141-0.035-0.216-0.105-0.225c-0.072-0.01-0.135,0.035-0.189,0.133l-1.545,2.666c-0.072,0.129-0.098,0.233-0.072,0.312
			c0.023,0.08,0.061,0.135,0.109,0.166c0.166,0.092,0.367,0.138,0.607,0.138c0.195,0,0.369-0.034,0.52-0.102
			s0.275-0.159,0.377-0.275c0.1-0.116,0.176-0.253,0.225-0.409s0.074-0.323,0.074-0.501V23.219z"/>
		<path fill="#336AF2" d="M33.198,25.168c0,0.288-0.049,0.558-0.148,0.809c-0.098,0.252-0.236,0.471-0.418,0.658
			c-0.18,0.187-0.398,0.334-0.652,0.44c-0.254,0.107-0.537,0.161-0.85,0.161s-0.596-0.054-0.852-0.161
			c-0.254-0.106-0.471-0.254-0.652-0.44c-0.18-0.188-0.32-0.406-0.418-0.658c-0.098-0.251-0.146-0.521-0.146-0.809v-2.298
			c0-0.288,0.049-0.559,0.146-0.81s0.238-0.471,0.418-0.657c0.182-0.187,0.398-0.334,0.652-0.441
			c0.256-0.107,0.539-0.161,0.852-0.161s0.596,0.054,0.85,0.161s0.473,0.255,0.652,0.441c0.182,0.187,0.32,0.406,0.418,0.657
			c0.1,0.251,0.148,0.521,0.148,0.81V25.168z M31.81,22.18c0.043-0.067,0.057-0.142,0.041-0.225s-0.047-0.137-0.096-0.161
			c-0.086-0.049-0.182-0.089-0.285-0.119c-0.104-0.031-0.219-0.046-0.34-0.046c-0.197,0-0.369,0.033-0.52,0.101
			s-0.275,0.159-0.377,0.276c-0.102,0.116-0.176,0.252-0.227,0.409c-0.049,0.156-0.072,0.323-0.072,0.501V24.8
			c0,0.153,0.037,0.233,0.109,0.239c0.074,0.007,0.139-0.036,0.193-0.129L31.81,22.18z M32.325,23.219
			c0-0.141-0.035-0.216-0.105-0.225c-0.072-0.01-0.135,0.035-0.189,0.133l-1.545,2.666c-0.072,0.129-0.098,0.233-0.072,0.312
			c0.023,0.08,0.061,0.135,0.109,0.166c0.166,0.092,0.367,0.138,0.607,0.138c0.195,0,0.369-0.034,0.52-0.102
			s0.275-0.159,0.377-0.275c0.1-0.116,0.176-0.253,0.225-0.409s0.074-0.323,0.074-0.501V23.219z"/>
		<path fill="#336AF2" d="M39.128,25.168c0,0.288-0.049,0.558-0.148,0.809c-0.098,0.252-0.236,0.471-0.418,0.658
			c-0.18,0.187-0.398,0.334-0.652,0.44c-0.254,0.107-0.537,0.161-0.85,0.161s-0.596-0.054-0.852-0.161
			c-0.254-0.106-0.471-0.254-0.652-0.44c-0.18-0.188-0.32-0.406-0.418-0.658c-0.098-0.251-0.146-0.521-0.146-0.809v-2.298
			c0-0.288,0.049-0.559,0.146-0.81s0.238-0.471,0.418-0.657c0.182-0.187,0.398-0.334,0.652-0.441
			c0.256-0.107,0.539-0.161,0.852-0.161s0.596,0.054,0.85,0.161s0.473,0.255,0.652,0.441c0.182,0.187,0.32,0.406,0.418,0.657
			c0.1,0.251,0.148,0.521,0.148,0.81V25.168z M37.739,22.18c0.043-0.067,0.057-0.142,0.041-0.225s-0.047-0.137-0.096-0.161
			c-0.086-0.049-0.182-0.089-0.285-0.119c-0.104-0.031-0.219-0.046-0.34-0.046c-0.197,0-0.369,0.033-0.52,0.101
			s-0.275,0.159-0.377,0.276c-0.102,0.116-0.176,0.252-0.227,0.409c-0.049,0.156-0.072,0.323-0.072,0.501V24.8
			c0,0.153,0.037,0.233,0.109,0.239c0.074,0.007,0.139-0.036,0.193-0.129L37.739,22.18z M38.255,23.219
			c0-0.141-0.035-0.216-0.105-0.225c-0.072-0.01-0.135,0.035-0.189,0.133l-1.545,2.666c-0.072,0.129-0.098,0.233-0.072,0.312
			c0.023,0.08,0.061,0.135,0.109,0.166c0.166,0.092,0.367,0.138,0.607,0.138c0.195,0,0.369-0.034,0.52-0.102
			s0.275-0.159,0.377-0.275c0.1-0.116,0.176-0.253,0.225-0.409s0.074-0.323,0.074-0.501V23.219z"/>
		<path fill="#336AF2" d="M41.38,27.145c-0.086,0-0.152-0.024-0.203-0.073c-0.049-0.049-0.072-0.116-0.072-0.202v-0.276
			c0-0.086,0.023-0.153,0.072-0.202c0.051-0.049,0.117-0.073,0.203-0.073h1.195c0.061,0,0.092-0.031,0.092-0.092v-4.413
			c0-0.062-0.031-0.092-0.092-0.092H41.38c-0.086,0-0.152-0.024-0.203-0.074c-0.049-0.049-0.072-0.116-0.072-0.202v-0.275
			c0-0.086,0.023-0.153,0.072-0.202c0.051-0.049,0.117-0.073,0.203-0.073h1.885c0.086,0,0.152,0.024,0.203,0.073
			c0.049,0.049,0.072,0.116,0.072,0.202v5.057c0,0.061,0.031,0.092,0.092,0.092h1.104c0.086,0,0.152,0.024,0.203,0.073
			c0.049,0.049,0.072,0.116,0.072,0.202v0.276c0,0.086-0.023,0.153-0.072,0.202c-0.051,0.049-0.117,0.073-0.203,0.073H41.38z"/>
		<path fill="#336AF2" d="M47.31,27.145c-0.086,0-0.152-0.024-0.203-0.073c-0.049-0.049-0.072-0.116-0.072-0.202v-0.276
			c0-0.086,0.023-0.153,0.072-0.202c0.051-0.049,0.117-0.073,0.203-0.073h1.195c0.061,0,0.092-0.031,0.092-0.092v-4.413
			c0-0.062-0.031-0.092-0.092-0.092H47.31c-0.086,0-0.152-0.024-0.203-0.074c-0.049-0.049-0.072-0.116-0.072-0.202v-0.275
			c0-0.086,0.023-0.153,0.072-0.202c0.051-0.049,0.117-0.073,0.203-0.073h1.885c0.086,0,0.152,0.024,0.203,0.073
			c0.049,0.049,0.072,0.116,0.072,0.202v5.057c0,0.061,0.031,0.092,0.092,0.092h1.104c0.086,0,0.152,0.024,0.203,0.073
			c0.049,0.049,0.072,0.116,0.072,0.202v0.276c0,0.086-0.023,0.153-0.072,0.202c-0.051,0.049-0.117,0.073-0.203,0.073H47.31z"/>
		<path fill="#336AF2" d="M56.917,25.168c0,0.288-0.049,0.558-0.148,0.809c-0.098,0.252-0.236,0.471-0.418,0.658
			c-0.18,0.187-0.398,0.334-0.652,0.44c-0.254,0.107-0.537,0.161-0.85,0.161s-0.596-0.054-0.852-0.161
			c-0.254-0.106-0.471-0.254-0.652-0.44c-0.18-0.188-0.32-0.406-0.418-0.658c-0.098-0.251-0.146-0.521-0.146-0.809v-2.298
			c0-0.288,0.049-0.559,0.146-0.81s0.238-0.471,0.418-0.657c0.182-0.187,0.398-0.334,0.652-0.441
			c0.256-0.107,0.539-0.161,0.852-0.161s0.596,0.054,0.85,0.161s0.473,0.255,0.652,0.441c0.182,0.187,0.32,0.406,0.418,0.657
			c0.1,0.251,0.148,0.521,0.148,0.81V25.168z M55.528,22.18c0.043-0.067,0.057-0.142,0.041-0.225s-0.047-0.137-0.096-0.161
			c-0.086-0.049-0.182-0.089-0.285-0.119c-0.104-0.031-0.219-0.046-0.34-0.046c-0.197,0-0.369,0.033-0.52,0.101
			s-0.275,0.159-0.377,0.276c-0.102,0.116-0.176,0.252-0.227,0.409c-0.049,0.156-0.072,0.323-0.072,0.501V24.8
			c0,0.153,0.037,0.233,0.109,0.239c0.074,0.007,0.139-0.036,0.193-0.129L55.528,22.18z M56.044,23.219
			c0-0.141-0.035-0.216-0.105-0.225c-0.072-0.01-0.135,0.035-0.189,0.133l-1.545,2.666c-0.072,0.129-0.098,0.233-0.072,0.312
			c0.023,0.08,0.061,0.135,0.109,0.166c0.166,0.092,0.367,0.138,0.607,0.138c0.195,0,0.369-0.034,0.52-0.102
			s0.275-0.159,0.377-0.275c0.1-0.116,0.176-0.253,0.225-0.409s0.074-0.323,0.074-0.501V23.219z"/>
		<path fill="#336AF2" d="M59.169,27.145c-0.086,0-0.154-0.024-0.203-0.073s-0.074-0.116-0.074-0.202v-0.276
			c0-0.086,0.025-0.153,0.074-0.202s0.117-0.073,0.203-0.073h1.193c0.062,0,0.092-0.031,0.092-0.092v-4.413
			c0-0.062-0.029-0.092-0.092-0.092h-1.193c-0.086,0-0.154-0.024-0.203-0.074c-0.049-0.049-0.074-0.116-0.074-0.202v-0.275
			c0-0.086,0.025-0.153,0.074-0.202s0.117-0.073,0.203-0.073h1.883c0.086,0,0.154,0.024,0.203,0.073s0.074,0.116,0.074,0.202v5.057
			c0,0.061,0.029,0.092,0.092,0.092h1.104c0.084,0,0.152,0.024,0.201,0.073s0.074,0.116,0.074,0.202v0.276
			c0,0.086-0.025,0.153-0.074,0.202s-0.117,0.073-0.201,0.073H59.169z"/>
		<path fill="#336AF2" d="M21.339,33.595c0,0.288-0.049,0.558-0.148,0.809c-0.098,0.252-0.236,0.471-0.418,0.658
			c-0.18,0.187-0.398,0.334-0.652,0.44c-0.254,0.107-0.537,0.161-0.85,0.161s-0.596-0.054-0.852-0.161
			c-0.254-0.106-0.471-0.254-0.652-0.44c-0.18-0.188-0.32-0.406-0.418-0.658c-0.098-0.251-0.146-0.521-0.146-0.809v-2.298
			c0-0.288,0.049-0.559,0.146-0.81s0.238-0.471,0.418-0.657c0.182-0.187,0.398-0.334,0.652-0.441
			c0.256-0.107,0.539-0.161,0.852-0.161s0.596,0.054,0.85,0.161s0.473,0.255,0.652,0.441c0.182,0.187,0.32,0.406,0.418,0.657
			c0.1,0.251,0.148,0.521,0.148,0.81V33.595z M19.95,30.607c0.043-0.067,0.057-0.142,0.041-0.225s-0.047-0.137-0.096-0.161
			c-0.086-0.049-0.182-0.089-0.285-0.119c-0.104-0.031-0.219-0.046-0.34-0.046c-0.197,0-0.369,0.033-0.52,0.101
			s-0.275,0.159-0.377,0.276c-0.102,0.116-0.176,0.252-0.227,0.409c-0.049,0.156-0.072,0.323-0.072,0.501v1.884
			c0,0.153,0.037,0.233,0.109,0.239c0.074,0.007,0.139-0.036,0.193-0.129L19.95,30.607z M20.466,31.646
			c0-0.141-0.035-0.216-0.105-0.225c-0.072-0.01-0.135,0.035-0.189,0.133l-1.545,2.666c-0.072,0.129-0.098,0.233-0.072,0.312
			c0.023,0.08,0.061,0.135,0.109,0.166c0.166,0.092,0.367,0.138,0.607,0.138c0.195,0,0.369-0.034,0.52-0.102
			s0.275-0.159,0.377-0.275c0.1-0.116,0.176-0.253,0.225-0.409s0.074-0.323,0.074-0.501V31.646z"/>
		<path fill="#336AF2" d="M27.269,33.595c0,0.288-0.049,0.558-0.148,0.809c-0.098,0.252-0.236,0.471-0.418,0.658
			c-0.18,0.187-0.398,0.334-0.652,0.44c-0.254,0.107-0.537,0.161-0.85,0.161s-0.596-0.054-0.852-0.161
			c-0.254-0.106-0.471-0.254-0.652-0.44c-0.18-0.188-0.32-0.406-0.418-0.658c-0.098-0.251-0.146-0.521-0.146-0.809v-2.298
			c0-0.288,0.049-0.559,0.146-0.81s0.238-0.471,0.418-0.657c0.182-0.187,0.398-0.334,0.652-0.441
			c0.256-0.107,0.539-0.161,0.852-0.161s0.596,0.054,0.85,0.161s0.473,0.255,0.652,0.441c0.182,0.187,0.32,0.406,0.418,0.657
			c0.1,0.251,0.148,0.521,0.148,0.81V33.595z M25.88,30.607c0.043-0.067,0.057-0.142,0.041-0.225s-0.047-0.137-0.096-0.161
			c-0.086-0.049-0.182-0.089-0.285-0.119c-0.104-0.031-0.219-0.046-0.34-0.046c-0.197,0-0.369,0.033-0.52,0.101
			s-0.275,0.159-0.377,0.276c-0.102,0.116-0.176,0.252-0.227,0.409c-0.049,0.156-0.072,0.323-0.072,0.501v1.884
			c0,0.153,0.037,0.233,0.109,0.239c0.074,0.007,0.139-0.036,0.193-0.129L25.88,30.607z M26.396,31.646
			c0-0.141-0.035-0.216-0.105-0.225c-0.072-0.01-0.135,0.035-0.189,0.133l-1.545,2.666c-0.072,0.129-0.098,0.233-0.072,0.312
			c0.023,0.08,0.061,0.135,0.109,0.166c0.166,0.092,0.367,0.138,0.607,0.138c0.195,0,0.369-0.034,0.52-0.102
			s0.275-0.159,0.377-0.275c0.1-0.116,0.176-0.253,0.225-0.409s0.074-0.323,0.074-0.501V31.646z"/>
		<path fill="#336AF2" d="M29.521,35.572c-0.086,0-0.152-0.024-0.203-0.073c-0.049-0.049-0.072-0.116-0.072-0.202V35.02
			c0-0.086,0.023-0.153,0.072-0.202c0.051-0.049,0.117-0.073,0.203-0.073h1.195c0.061,0,0.092-0.031,0.092-0.092V30.24
			c0-0.062-0.031-0.092-0.092-0.092h-1.195c-0.086,0-0.152-0.024-0.203-0.074c-0.049-0.049-0.072-0.116-0.072-0.202v-0.275
			c0-0.086,0.023-0.153,0.072-0.202c0.051-0.049,0.117-0.073,0.203-0.073h1.885c0.086,0,0.152,0.024,0.203,0.073
			c0.049,0.049,0.072,0.116,0.072,0.202v5.057c0,0.061,0.031,0.092,0.092,0.092h1.104c0.086,0,0.152,0.024,0.203,0.073
			c0.049,0.049,0.072,0.116,0.072,0.202v0.276c0,0.086-0.023,0.153-0.072,0.202c-0.051,0.049-0.117,0.073-0.203,0.073H29.521z"/>
		<path fill="#336AF2" d="M39.128,33.595c0,0.288-0.049,0.558-0.148,0.809c-0.098,0.252-0.236,0.471-0.418,0.658
			c-0.18,0.187-0.398,0.334-0.652,0.44c-0.254,0.107-0.537,0.161-0.85,0.161s-0.596-0.054-0.852-0.161
			c-0.254-0.106-0.471-0.254-0.652-0.44c-0.18-0.188-0.32-0.406-0.418-0.658c-0.098-0.251-0.146-0.521-0.146-0.809v-2.298
			c0-0.288,0.049-0.559,0.146-0.81s0.238-0.471,0.418-0.657c0.182-0.187,0.398-0.334,0.652-0.441
			c0.256-0.107,0.539-0.161,0.852-0.161s0.596,0.054,0.85,0.161s0.473,0.255,0.652,0.441c0.182,0.187,0.32,0.406,0.418,0.657
			c0.1,0.251,0.148,0.521,0.148,0.81V33.595z M37.739,30.607c0.043-0.067,0.057-0.142,0.041-0.225s-0.047-0.137-0.096-0.161
			c-0.086-0.049-0.182-0.089-0.285-0.119c-0.104-0.031-0.219-0.046-0.34-0.046c-0.197,0-0.369,0.033-0.52,0.101
			s-0.275,0.159-0.377,0.276c-0.102,0.116-0.176,0.252-0.227,0.409c-0.049,0.156-0.072,0.323-0.072,0.501v1.884
			c0,0.153,0.037,0.233,0.109,0.239c0.074,0.007,0.139-0.036,0.193-0.129L37.739,30.607z M38.255,31.646
			c0-0.141-0.035-0.216-0.105-0.225c-0.072-0.01-0.135,0.035-0.189,0.133l-1.545,2.666c-0.072,0.129-0.098,0.233-0.072,0.312
			c0.023,0.08,0.061,0.135,0.109,0.166c0.166,0.092,0.367,0.138,0.607,0.138c0.195,0,0.369-0.034,0.52-0.102
			s0.275-0.159,0.377-0.275c0.1-0.116,0.176-0.253,0.225-0.409s0.074-0.323,0.074-0.501V31.646z"/>
		<path fill="#336AF2" d="M45.058,33.595c0,0.288-0.049,0.558-0.148,0.809c-0.098,0.252-0.236,0.471-0.418,0.658
			c-0.18,0.187-0.398,0.334-0.652,0.44c-0.254,0.107-0.537,0.161-0.85,0.161s-0.596-0.054-0.852-0.161
			c-0.254-0.106-0.471-0.254-0.652-0.44c-0.18-0.188-0.32-0.406-0.418-0.658c-0.098-0.251-0.146-0.521-0.146-0.809v-2.298
			c0-0.288,0.049-0.559,0.146-0.81s0.238-0.471,0.418-0.657c0.182-0.187,0.398-0.334,0.652-0.441
			c0.256-0.107,0.539-0.161,0.852-0.161s0.596,0.054,0.85,0.161s0.473,0.255,0.652,0.441c0.182,0.187,0.32,0.406,0.418,0.657
			c0.1,0.251,0.148,0.521,0.148,0.81V33.595z M43.669,30.607c0.043-0.067,0.057-0.142,0.041-0.225s-0.047-0.137-0.096-0.161
			c-0.086-0.049-0.182-0.089-0.285-0.119c-0.104-0.031-0.219-0.046-0.34-0.046c-0.197,0-0.369,0.033-0.52,0.101
			s-0.275,0.159-0.377,0.276c-0.102,0.116-0.176,0.252-0.227,0.409c-0.049,0.156-0.072,0.323-0.072,0.501v1.884
			c0,0.153,0.037,0.233,0.109,0.239c0.074,0.007,0.139-0.036,0.193-0.129L43.669,30.607z M44.185,31.646
			c0-0.141-0.035-0.216-0.105-0.225c-0.072-0.01-0.135,0.035-0.189,0.133l-1.545,2.666c-0.072,0.129-0.098,0.233-0.072,0.312
			c0.023,0.08,0.061,0.135,0.109,0.166c0.166,0.092,0.367,0.138,0.607,0.138c0.195,0,0.369-0.034,0.52-0.102
			s0.275-0.159,0.377-0.275c0.1-0.116,0.176-0.253,0.225-0.409s0.074-0.323,0.074-0.501V31.646z"/>
		<path fill="#336AF2" d="M47.31,35.572c-0.086,0-0.152-0.024-0.203-0.073c-0.049-0.049-0.072-0.116-0.072-0.202V35.02
			c0-0.086,0.023-0.153,0.072-0.202c0.051-0.049,0.117-0.073,0.203-0.073h1.195c0.061,0,0.092-0.031,0.092-0.092V30.24
			c0-0.062-0.031-0.092-0.092-0.092H47.31c-0.086,0-0.152-0.024-0.203-0.074c-0.049-0.049-0.072-0.116-0.072-0.202v-0.275
			c0-0.086,0.023-0.153,0.072-0.202c0.051-0.049,0.117-0.073,0.203-0.073h1.885c0.086,0,0.152,0.024,0.203,0.073
			c0.049,0.049,0.072,0.116,0.072,0.202v5.057c0,0.061,0.031,0.092,0.092,0.092h1.104c0.086,0,0.152,0.024,0.203,0.073
			c0.049,0.049,0.072,0.116,0.072,0.202v0.276c0,0.086-0.023,0.153-0.072,0.202c-0.051,0.049-0.117,0.073-0.203,0.073H47.31z"/>
		<path fill="#336AF2" d="M56.917,33.595c0,0.288-0.049,0.558-0.148,0.809c-0.098,0.252-0.236,0.471-0.418,0.658
			c-0.18,0.187-0.398,0.334-0.652,0.44c-0.254,0.107-0.537,0.161-0.85,0.161s-0.596-0.054-0.852-0.161
			c-0.254-0.106-0.471-0.254-0.652-0.44c-0.18-0.188-0.32-0.406-0.418-0.658c-0.098-0.251-0.146-0.521-0.146-0.809v-2.298
			c0-0.288,0.049-0.559,0.146-0.81s0.238-0.471,0.418-0.657c0.182-0.187,0.398-0.334,0.652-0.441
			c0.256-0.107,0.539-0.161,0.852-0.161s0.596,0.054,0.85,0.161s0.473,0.255,0.652,0.441c0.182,0.187,0.32,0.406,0.418,0.657
			c0.1,0.251,0.148,0.521,0.148,0.81V33.595z M55.528,30.607c0.043-0.067,0.057-0.142,0.041-0.225s-0.047-0.137-0.096-0.161
			c-0.086-0.049-0.182-0.089-0.285-0.119c-0.104-0.031-0.219-0.046-0.34-0.046c-0.197,0-0.369,0.033-0.52,0.101
			s-0.275,0.159-0.377,0.276c-0.102,0.116-0.176,0.252-0.227,0.409c-0.049,0.156-0.072,0.323-0.072,0.501v1.884
			c0,0.153,0.037,0.233,0.109,0.239c0.074,0.007,0.139-0.036,0.193-0.129L55.528,30.607z M56.044,31.646
			c0-0.141-0.035-0.216-0.105-0.225c-0.072-0.01-0.135,0.035-0.189,0.133l-1.545,2.666c-0.072,0.129-0.098,0.233-0.072,0.312
			c0.023,0.08,0.061,0.135,0.109,0.166c0.166,0.092,0.367,0.138,0.607,0.138c0.195,0,0.369-0.034,0.52-0.102
			s0.275-0.159,0.377-0.275c0.1-0.116,0.176-0.253,0.225-0.409s0.074-0.323,0.074-0.501V31.646z"/>
		<path fill="#336AF2" d="M59.169,35.572c-0.086,0-0.154-0.024-0.203-0.073s-0.074-0.116-0.074-0.202V35.02
			c0-0.086,0.025-0.153,0.074-0.202s0.117-0.073,0.203-0.073h1.193c0.062,0,0.092-0.031,0.092-0.092V30.24
			c0-0.062-0.029-0.092-0.092-0.092h-1.193c-0.086,0-0.154-0.024-0.203-0.074c-0.049-0.049-0.074-0.116-0.074-0.202v-0.275
			c0-0.086,0.025-0.153,0.074-0.202s0.117-0.073,0.203-0.073h1.883c0.086,0,0.154,0.024,0.203,0.073s0.074,0.116,0.074,0.202v5.057
			c0,0.061,0.029,0.092,0.092,0.092h1.104c0.084,0,0.152,0.024,0.201,0.073S62.8,34.934,62.8,35.02v0.276
			c0,0.086-0.025,0.153-0.074,0.202s-0.117,0.073-0.201,0.073H59.169z"/>
		<path fill="#336AF2" d="M21.339,42.023c0,0.287-0.049,0.557-0.148,0.809c-0.098,0.252-0.236,0.471-0.418,0.658
			c-0.18,0.186-0.398,0.334-0.652,0.439c-0.254,0.107-0.537,0.162-0.85,0.162s-0.596-0.055-0.852-0.162
			c-0.254-0.105-0.471-0.254-0.652-0.439c-0.18-0.188-0.32-0.406-0.418-0.658s-0.146-0.521-0.146-0.809v-2.298
			c0-0.288,0.049-0.559,0.146-0.81s0.238-0.471,0.418-0.657c0.182-0.187,0.398-0.334,0.652-0.441
			c0.256-0.107,0.539-0.161,0.852-0.161s0.596,0.054,0.85,0.161s0.473,0.255,0.652,0.441c0.182,0.187,0.32,0.406,0.418,0.657
			c0.1,0.251,0.148,0.521,0.148,0.81V42.023z M19.95,39.035c0.043-0.067,0.057-0.142,0.041-0.225s-0.047-0.137-0.096-0.161
			C19.81,38.6,19.714,38.56,19.61,38.53c-0.104-0.031-0.219-0.046-0.34-0.046c-0.197,0-0.369,0.033-0.52,0.101
			s-0.275,0.159-0.377,0.276c-0.102,0.116-0.176,0.252-0.227,0.409c-0.049,0.156-0.072,0.323-0.072,0.501v1.883
			c0,0.154,0.037,0.234,0.109,0.24c0.074,0.006,0.139-0.037,0.193-0.129L19.95,39.035z M20.466,40.074
			c0-0.141-0.035-0.216-0.105-0.225c-0.072-0.01-0.135,0.035-0.189,0.133l-1.545,2.667c-0.072,0.129-0.098,0.232-0.072,0.312
			c0.023,0.08,0.061,0.135,0.109,0.166c0.166,0.092,0.367,0.137,0.607,0.137c0.195,0,0.369-0.033,0.52-0.102
			c0.15-0.066,0.275-0.158,0.377-0.275c0.1-0.115,0.176-0.252,0.225-0.408s0.074-0.324,0.074-0.502V40.074z"/>
		<path fill="#336AF2" d="M27.269,42.023c0,0.287-0.049,0.557-0.148,0.809c-0.098,0.252-0.236,0.471-0.418,0.658
			c-0.18,0.186-0.398,0.334-0.652,0.439c-0.254,0.107-0.537,0.162-0.85,0.162s-0.596-0.055-0.852-0.162
			c-0.254-0.105-0.471-0.254-0.652-0.439c-0.18-0.188-0.32-0.406-0.418-0.658s-0.146-0.521-0.146-0.809v-2.298
			c0-0.288,0.049-0.559,0.146-0.81s0.238-0.471,0.418-0.657c0.182-0.187,0.398-0.334,0.652-0.441
			c0.256-0.107,0.539-0.161,0.852-0.161s0.596,0.054,0.85,0.161s0.473,0.255,0.652,0.441c0.182,0.187,0.32,0.406,0.418,0.657
			c0.1,0.251,0.148,0.521,0.148,0.81V42.023z M25.88,39.035c0.043-0.067,0.057-0.142,0.041-0.225s-0.047-0.137-0.096-0.161
			c-0.086-0.049-0.182-0.089-0.285-0.119c-0.104-0.031-0.219-0.046-0.34-0.046c-0.197,0-0.369,0.033-0.52,0.101
			s-0.275,0.159-0.377,0.276c-0.102,0.116-0.176,0.252-0.227,0.409c-0.049,0.156-0.072,0.323-0.072,0.501v1.883
			c0,0.154,0.037,0.234,0.109,0.24c0.074,0.006,0.139-0.037,0.193-0.129L25.88,39.035z M26.396,40.074
			c0-0.141-0.035-0.216-0.105-0.225c-0.072-0.01-0.135,0.035-0.189,0.133l-1.545,2.667c-0.072,0.129-0.098,0.232-0.072,0.312
			c0.023,0.08,0.061,0.135,0.109,0.166c0.166,0.092,0.367,0.137,0.607,0.137c0.195,0,0.369-0.033,0.52-0.102
			c0.15-0.066,0.275-0.158,0.377-0.275c0.1-0.115,0.176-0.252,0.225-0.408s0.074-0.324,0.074-0.502V40.074z"/>
		<path fill="#336AF2" d="M29.521,44c-0.086,0-0.152-0.025-0.203-0.074c-0.049-0.049-0.072-0.115-0.072-0.201v-0.277
			c0-0.086,0.023-0.152,0.072-0.201c0.051-0.049,0.117-0.074,0.203-0.074h1.195c0.061,0,0.092-0.031,0.092-0.092v-4.413
			c0-0.062-0.031-0.092-0.092-0.092h-1.195c-0.086,0-0.152-0.024-0.203-0.074c-0.049-0.049-0.072-0.116-0.072-0.202v-0.275
			c0-0.086,0.023-0.153,0.072-0.202c0.051-0.049,0.117-0.073,0.203-0.073h1.885c0.086,0,0.152,0.024,0.203,0.073
			c0.049,0.049,0.072,0.116,0.072,0.202v5.056c0,0.061,0.031,0.092,0.092,0.092h1.104c0.086,0,0.152,0.025,0.203,0.074
			c0.049,0.049,0.072,0.115,0.072,0.201v0.277c0,0.086-0.023,0.152-0.072,0.201C33.028,43.975,32.962,44,32.876,44H29.521z"/>
		<path fill="#336AF2" d="M35.45,44c-0.086,0-0.152-0.025-0.203-0.074c-0.049-0.049-0.072-0.115-0.072-0.201v-0.277
			c0-0.086,0.023-0.152,0.072-0.201c0.051-0.049,0.117-0.074,0.203-0.074h1.195c0.061,0,0.092-0.031,0.092-0.092v-4.413
			c0-0.062-0.031-0.092-0.092-0.092H35.45c-0.086,0-0.152-0.024-0.203-0.074c-0.049-0.049-0.072-0.116-0.072-0.202v-0.275
			c0-0.086,0.023-0.153,0.072-0.202c0.051-0.049,0.117-0.073,0.203-0.073h1.885c0.086,0,0.152,0.024,0.203,0.073
			c0.049,0.049,0.072,0.116,0.072,0.202v5.056c0,0.061,0.031,0.092,0.092,0.092h1.104c0.086,0,0.152,0.025,0.203,0.074
			c0.049,0.049,0.072,0.115,0.072,0.201v0.277c0,0.086-0.023,0.152-0.072,0.201C38.958,43.975,38.892,44,38.806,44H35.45z"/>
		<path fill="#336AF2" d="M41.38,44c-0.086,0-0.152-0.025-0.203-0.074c-0.049-0.049-0.072-0.115-0.072-0.201v-0.277
			c0-0.086,0.023-0.152,0.072-0.201c0.051-0.049,0.117-0.074,0.203-0.074h1.195c0.061,0,0.092-0.031,0.092-0.092v-4.413
			c0-0.062-0.031-0.092-0.092-0.092H41.38c-0.086,0-0.152-0.024-0.203-0.074c-0.049-0.049-0.072-0.116-0.072-0.202v-0.275
			c0-0.086,0.023-0.153,0.072-0.202c0.051-0.049,0.117-0.073,0.203-0.073h1.885c0.086,0,0.152,0.024,0.203,0.073
			c0.049,0.049,0.072,0.116,0.072,0.202v5.056c0,0.061,0.031,0.092,0.092,0.092h1.104c0.086,0,0.152,0.025,0.203,0.074
			c0.049,0.049,0.072,0.115,0.072,0.201v0.277c0,0.086-0.023,0.152-0.072,0.201C44.888,43.975,44.821,44,44.735,44H41.38z"/>
		<path fill="#336AF2" d="M50.987,42.023c0,0.287-0.049,0.557-0.148,0.809c-0.098,0.252-0.236,0.471-0.418,0.658
			c-0.18,0.186-0.398,0.334-0.652,0.439c-0.254,0.107-0.537,0.162-0.85,0.162s-0.596-0.055-0.852-0.162
			c-0.254-0.105-0.471-0.254-0.652-0.439c-0.18-0.188-0.32-0.406-0.418-0.658s-0.146-0.521-0.146-0.809v-2.298
			c0-0.288,0.049-0.559,0.146-0.81s0.238-0.471,0.418-0.657c0.182-0.187,0.398-0.334,0.652-0.441
			c0.256-0.107,0.539-0.161,0.852-0.161s0.596,0.054,0.85,0.161s0.473,0.255,0.652,0.441c0.182,0.187,0.32,0.406,0.418,0.657
			c0.1,0.251,0.148,0.521,0.148,0.81V42.023z M49.599,39.035c0.043-0.067,0.057-0.142,0.041-0.225s-0.047-0.137-0.096-0.161
			c-0.086-0.049-0.182-0.089-0.285-0.119c-0.104-0.031-0.219-0.046-0.34-0.046c-0.197,0-0.369,0.033-0.52,0.101
			s-0.275,0.159-0.377,0.276c-0.102,0.116-0.176,0.252-0.227,0.409c-0.049,0.156-0.072,0.323-0.072,0.501v1.883
			c0,0.154,0.037,0.234,0.109,0.24c0.074,0.006,0.139-0.037,0.193-0.129L49.599,39.035z M50.114,40.074
			c0-0.141-0.035-0.216-0.105-0.225c-0.072-0.01-0.135,0.035-0.189,0.133l-1.545,2.667c-0.072,0.129-0.098,0.232-0.072,0.312
			c0.023,0.08,0.061,0.135,0.109,0.166c0.166,0.092,0.367,0.137,0.607,0.137c0.195,0,0.369-0.033,0.52-0.102
			c0.15-0.066,0.275-0.158,0.377-0.275c0.1-0.115,0.176-0.252,0.225-0.408s0.074-0.324,0.074-0.502V40.074z"/>
		<path fill="#336AF2" d="M53.239,44c-0.086,0-0.152-0.025-0.203-0.074c-0.049-0.049-0.072-0.115-0.072-0.201v-0.277
			c0-0.086,0.023-0.152,0.072-0.201c0.051-0.049,0.117-0.074,0.203-0.074h1.195c0.061,0,0.092-0.031,0.092-0.092v-4.413
			c0-0.062-0.031-0.092-0.092-0.092h-1.195c-0.086,0-0.152-0.024-0.203-0.074c-0.049-0.049-0.072-0.116-0.072-0.202v-0.275
			c0-0.086,0.023-0.153,0.072-0.202c0.051-0.049,0.117-0.073,0.203-0.073h1.885c0.086,0,0.152,0.024,0.203,0.073
			c0.049,0.049,0.072,0.116,0.072,0.202v5.056c0,0.061,0.031,0.092,0.092,0.092h1.104c0.086,0,0.152,0.025,0.203,0.074
			c0.049,0.049,0.072,0.115,0.072,0.201v0.277c0,0.086-0.023,0.152-0.072,0.201C56.747,43.975,56.681,44,56.595,44H53.239z"/>
		<path fill="#336AF2" d="M59.169,44c-0.086,0-0.154-0.025-0.203-0.074s-0.074-0.115-0.074-0.201v-0.277
			c0-0.086,0.025-0.152,0.074-0.201s0.117-0.074,0.203-0.074h1.193c0.062,0,0.092-0.031,0.092-0.092v-4.413
			c0-0.062-0.029-0.092-0.092-0.092h-1.193c-0.086,0-0.154-0.024-0.203-0.074c-0.049-0.049-0.074-0.116-0.074-0.202v-0.275
			c0-0.086,0.025-0.153,0.074-0.202s0.117-0.073,0.203-0.073h1.883c0.086,0,0.154,0.024,0.203,0.073s0.074,0.116,0.074,0.202v5.056
			c0,0.061,0.029,0.092,0.092,0.092h1.104c0.084,0,0.152,0.025,0.201,0.074s0.074,0.115,0.074,0.201v0.277
			c0,0.086-0.025,0.152-0.074,0.201S62.608,44,62.524,44H59.169z"/>
		<path fill="#336AF2" d="M21.339,50.449c0,0.289-0.049,0.559-0.148,0.809c-0.098,0.252-0.236,0.471-0.418,0.658
			c-0.18,0.188-0.398,0.334-0.652,0.441s-0.537,0.16-0.85,0.16s-0.596-0.053-0.852-0.16c-0.254-0.107-0.471-0.254-0.652-0.441
			c-0.18-0.188-0.32-0.406-0.418-0.658c-0.098-0.25-0.146-0.52-0.146-0.809v-2.297c0-0.289,0.049-0.559,0.146-0.811
			c0.098-0.25,0.238-0.471,0.418-0.656c0.182-0.188,0.398-0.334,0.652-0.441c0.256-0.107,0.539-0.162,0.852-0.162
			s0.596,0.055,0.85,0.162s0.473,0.254,0.652,0.441c0.182,0.186,0.32,0.406,0.418,0.656c0.1,0.252,0.148,0.521,0.148,0.811V50.449z
			 M19.95,47.461c0.043-0.066,0.057-0.141,0.041-0.225c-0.016-0.082-0.047-0.137-0.096-0.16c-0.086-0.049-0.182-0.09-0.285-0.119
			c-0.104-0.031-0.219-0.047-0.34-0.047c-0.197,0-0.369,0.033-0.52,0.102c-0.15,0.066-0.275,0.158-0.377,0.275
			s-0.176,0.252-0.227,0.41c-0.049,0.156-0.072,0.322-0.072,0.5v1.885c0,0.152,0.037,0.232,0.109,0.238
			c0.074,0.008,0.139-0.035,0.193-0.129L19.95,47.461z M20.466,48.5c0-0.141-0.035-0.215-0.105-0.225
			c-0.072-0.01-0.135,0.035-0.189,0.133l-1.545,2.666c-0.072,0.129-0.098,0.234-0.072,0.312c0.023,0.08,0.061,0.135,0.109,0.166
			c0.166,0.092,0.367,0.139,0.607,0.139c0.195,0,0.369-0.035,0.52-0.102c0.15-0.068,0.275-0.16,0.377-0.275
			c0.1-0.117,0.176-0.254,0.225-0.41s0.074-0.322,0.074-0.5V48.5z"/>
		<path fill="#336AF2" d="M27.269,50.449c0,0.289-0.049,0.559-0.148,0.809c-0.098,0.252-0.236,0.471-0.418,0.658
			c-0.18,0.188-0.398,0.334-0.652,0.441s-0.537,0.16-0.85,0.16s-0.596-0.053-0.852-0.16c-0.254-0.107-0.471-0.254-0.652-0.441
			c-0.18-0.188-0.32-0.406-0.418-0.658c-0.098-0.25-0.146-0.52-0.146-0.809v-2.297c0-0.289,0.049-0.559,0.146-0.811
			c0.098-0.25,0.238-0.471,0.418-0.656c0.182-0.188,0.398-0.334,0.652-0.441c0.256-0.107,0.539-0.162,0.852-0.162
			s0.596,0.055,0.85,0.162s0.473,0.254,0.652,0.441c0.182,0.186,0.32,0.406,0.418,0.656c0.1,0.252,0.148,0.521,0.148,0.811V50.449z
			 M25.88,47.461c0.043-0.066,0.057-0.141,0.041-0.225c-0.016-0.082-0.047-0.137-0.096-0.16c-0.086-0.049-0.182-0.09-0.285-0.119
			c-0.104-0.031-0.219-0.047-0.34-0.047c-0.197,0-0.369,0.033-0.52,0.102c-0.15,0.066-0.275,0.158-0.377,0.275
			s-0.176,0.252-0.227,0.41c-0.049,0.156-0.072,0.322-0.072,0.5v1.885c0,0.152,0.037,0.232,0.109,0.238
			c0.074,0.008,0.139-0.035,0.193-0.129L25.88,47.461z M26.396,48.5c0-0.141-0.035-0.215-0.105-0.225
			c-0.072-0.01-0.135,0.035-0.189,0.133l-1.545,2.666c-0.072,0.129-0.098,0.234-0.072,0.312c0.023,0.08,0.061,0.135,0.109,0.166
			c0.166,0.092,0.367,0.139,0.607,0.139c0.195,0,0.369-0.035,0.52-0.102c0.15-0.068,0.275-0.16,0.377-0.275
			c0.1-0.117,0.176-0.254,0.225-0.41s0.074-0.322,0.074-0.5V48.5z"/>
		<path fill="#336AF2" d="M29.521,52.426c-0.086,0-0.152-0.023-0.203-0.072c-0.049-0.049-0.072-0.117-0.072-0.203v-0.275
			c0-0.086,0.023-0.154,0.072-0.203c0.051-0.049,0.117-0.072,0.203-0.072h1.195c0.061,0,0.092-0.031,0.092-0.092v-4.414
			c0-0.061-0.031-0.092-0.092-0.092h-1.195c-0.086,0-0.152-0.023-0.203-0.074c-0.049-0.049-0.072-0.115-0.072-0.201v-0.275
			c0-0.086,0.023-0.154,0.072-0.203c0.051-0.049,0.117-0.072,0.203-0.072h1.885c0.086,0,0.152,0.023,0.203,0.072
			c0.049,0.049,0.072,0.117,0.072,0.203v5.057c0,0.061,0.031,0.092,0.092,0.092h1.104c0.086,0,0.152,0.023,0.203,0.072
			c0.049,0.049,0.072,0.117,0.072,0.203v0.275c0,0.086-0.023,0.154-0.072,0.203c-0.051,0.049-0.117,0.072-0.203,0.072H29.521z"/>
		<path fill="#336AF2" d="M39.128,50.449c0,0.289-0.049,0.559-0.148,0.809c-0.098,0.252-0.236,0.471-0.418,0.658
			c-0.18,0.188-0.398,0.334-0.652,0.441s-0.537,0.16-0.85,0.16s-0.596-0.053-0.852-0.16c-0.254-0.107-0.471-0.254-0.652-0.441
			c-0.18-0.188-0.32-0.406-0.418-0.658c-0.098-0.25-0.146-0.52-0.146-0.809v-2.297c0-0.289,0.049-0.559,0.146-0.811
			c0.098-0.25,0.238-0.471,0.418-0.656c0.182-0.188,0.398-0.334,0.652-0.441c0.256-0.107,0.539-0.162,0.852-0.162
			s0.596,0.055,0.85,0.162s0.473,0.254,0.652,0.441c0.182,0.186,0.32,0.406,0.418,0.656c0.1,0.252,0.148,0.521,0.148,0.811V50.449z
			 M37.739,47.461c0.043-0.066,0.057-0.141,0.041-0.225c-0.016-0.082-0.047-0.137-0.096-0.16c-0.086-0.049-0.182-0.09-0.285-0.119
			c-0.104-0.031-0.219-0.047-0.34-0.047c-0.197,0-0.369,0.033-0.52,0.102c-0.15,0.066-0.275,0.158-0.377,0.275
			s-0.176,0.252-0.227,0.41c-0.049,0.156-0.072,0.322-0.072,0.5v1.885c0,0.152,0.037,0.232,0.109,0.238
			c0.074,0.008,0.139-0.035,0.193-0.129L37.739,47.461z M38.255,48.5c0-0.141-0.035-0.215-0.105-0.225
			c-0.072-0.01-0.135,0.035-0.189,0.133l-1.545,2.666c-0.072,0.129-0.098,0.234-0.072,0.312c0.023,0.08,0.061,0.135,0.109,0.166
			c0.166,0.092,0.367,0.139,0.607,0.139c0.195,0,0.369-0.035,0.52-0.102c0.15-0.068,0.275-0.16,0.377-0.275
			c0.1-0.117,0.176-0.254,0.225-0.41s0.074-0.322,0.074-0.5V48.5z"/>
		<path fill="#336AF2" d="M41.38,52.426c-0.086,0-0.152-0.023-0.203-0.072c-0.049-0.049-0.072-0.117-0.072-0.203v-0.275
			c0-0.086,0.023-0.154,0.072-0.203c0.051-0.049,0.117-0.072,0.203-0.072h1.195c0.061,0,0.092-0.031,0.092-0.092v-4.414
			c0-0.061-0.031-0.092-0.092-0.092H41.38c-0.086,0-0.152-0.023-0.203-0.074c-0.049-0.049-0.072-0.115-0.072-0.201v-0.275
			c0-0.086,0.023-0.154,0.072-0.203c0.051-0.049,0.117-0.072,0.203-0.072h1.885c0.086,0,0.152,0.023,0.203,0.072
			c0.049,0.049,0.072,0.117,0.072,0.203v5.057c0,0.061,0.031,0.092,0.092,0.092h1.104c0.086,0,0.152,0.023,0.203,0.072
			c0.049,0.049,0.072,0.117,0.072,0.203v0.275c0,0.086-0.023,0.154-0.072,0.203c-0.051,0.049-0.117,0.072-0.203,0.072H41.38z"/>
		<path fill="#336AF2" d="M50.987,50.449c0,0.289-0.049,0.559-0.148,0.809c-0.098,0.252-0.236,0.471-0.418,0.658
			c-0.18,0.188-0.398,0.334-0.652,0.441s-0.537,0.16-0.85,0.16s-0.596-0.053-0.852-0.16c-0.254-0.107-0.471-0.254-0.652-0.441
			c-0.18-0.188-0.32-0.406-0.418-0.658c-0.098-0.25-0.146-0.52-0.146-0.809v-2.297c0-0.289,0.049-0.559,0.146-0.811
			c0.098-0.25,0.238-0.471,0.418-0.656c0.182-0.188,0.398-0.334,0.652-0.441c0.256-0.107,0.539-0.162,0.852-0.162
			s0.596,0.055,0.85,0.162s0.473,0.254,0.652,0.441c0.182,0.186,0.32,0.406,0.418,0.656c0.1,0.252,0.148,0.521,0.148,0.811V50.449z
			 M49.599,47.461c0.043-0.066,0.057-0.141,0.041-0.225c-0.016-0.082-0.047-0.137-0.096-0.16c-0.086-0.049-0.182-0.09-0.285-0.119
			c-0.104-0.031-0.219-0.047-0.34-0.047c-0.197,0-0.369,0.033-0.52,0.102c-0.15,0.066-0.275,0.158-0.377,0.275
			s-0.176,0.252-0.227,0.41c-0.049,0.156-0.072,0.322-0.072,0.5v1.885c0,0.152,0.037,0.232,0.109,0.238
			c0.074,0.008,0.139-0.035,0.193-0.129L49.599,47.461z M50.114,48.5c0-0.141-0.035-0.215-0.105-0.225
			c-0.072-0.01-0.135,0.035-0.189,0.133l-1.545,2.666c-0.072,0.129-0.098,0.234-0.072,0.312c0.023,0.08,0.061,0.135,0.109,0.166
			c0.166,0.092,0.367,0.139,0.607,0.139c0.195,0,0.369-0.035,0.52-0.102c0.15-0.068,0.275-0.16,0.377-0.275
			c0.1-0.117,0.176-0.254,0.225-0.41s0.074-0.322,0.074-0.5V48.5z"/>
		<path fill="#336AF2" d="M56.917,50.449c0,0.289-0.049,0.559-0.148,0.809c-0.098,0.252-0.236,0.471-0.418,0.658
			c-0.18,0.188-0.398,0.334-0.652,0.441s-0.537,0.16-0.85,0.16s-0.596-0.053-0.852-0.16c-0.254-0.107-0.471-0.254-0.652-0.441
			c-0.18-0.188-0.32-0.406-0.418-0.658c-0.098-0.25-0.146-0.52-0.146-0.809v-2.297c0-0.289,0.049-0.559,0.146-0.811
			c0.098-0.25,0.238-0.471,0.418-0.656c0.182-0.188,0.398-0.334,0.652-0.441c0.256-0.107,0.539-0.162,0.852-0.162
			s0.596,0.055,0.85,0.162s0.473,0.254,0.652,0.441c0.182,0.186,0.32,0.406,0.418,0.656c0.1,0.252,0.148,0.521,0.148,0.811V50.449z
			 M55.528,47.461c0.043-0.066,0.057-0.141,0.041-0.225c-0.016-0.082-0.047-0.137-0.096-0.16c-0.086-0.049-0.182-0.09-0.285-0.119
			c-0.104-0.031-0.219-0.047-0.34-0.047c-0.197,0-0.369,0.033-0.52,0.102c-0.15,0.066-0.275,0.158-0.377,0.275
			s-0.176,0.252-0.227,0.41c-0.049,0.156-0.072,0.322-0.072,0.5v1.885c0,0.152,0.037,0.232,0.109,0.238
			c0.074,0.008,0.139-0.035,0.193-0.129L55.528,47.461z M56.044,48.5c0-0.141-0.035-0.215-0.105-0.225
			c-0.072-0.01-0.135,0.035-0.189,0.133l-1.545,2.666c-0.072,0.129-0.098,0.234-0.072,0.312c0.023,0.08,0.061,0.135,0.109,0.166
			c0.166,0.092,0.367,0.139,0.607,0.139c0.195,0,0.369-0.035,0.52-0.102c0.15-0.068,0.275-0.16,0.377-0.275
			c0.1-0.117,0.176-0.254,0.225-0.41s0.074-0.322,0.074-0.5V48.5z"/>
		<path fill="#336AF2" d="M59.169,52.426c-0.086,0-0.154-0.023-0.203-0.072s-0.074-0.117-0.074-0.203v-0.275
			c0-0.086,0.025-0.154,0.074-0.203s0.117-0.072,0.203-0.072h1.193c0.062,0,0.092-0.031,0.092-0.092v-4.414
			c0-0.061-0.029-0.092-0.092-0.092h-1.193c-0.086,0-0.154-0.023-0.203-0.074c-0.049-0.049-0.074-0.115-0.074-0.201v-0.275
			c0-0.086,0.025-0.154,0.074-0.203s0.117-0.072,0.203-0.072h1.883c0.086,0,0.154,0.023,0.203,0.072s0.074,0.117,0.074,0.203v5.057
			c0,0.061,0.029,0.092,0.092,0.092h1.104c0.084,0,0.152,0.023,0.201,0.072s0.074,0.117,0.074,0.203v0.275
			c0,0.086-0.025,0.154-0.074,0.203s-0.117,0.072-0.201,0.072H59.169z"/>
	</g>
	<g>
		<path fill="#336AF2" d="M76.479,7.083c-0.213-0.076-0.424-0.151-0.611-0.231c-11.881-4.195-29.463-4.814-34.57-4.905V5.29
			c2.119,0.038,6.268,0.168,11.33,0.605c9.039,0.78,16.664,2.191,22.059,4.084c0.232,0.094,0.455,0.175,0.656,0.246
			c0.137,0.051,0.594,0.227,0.594,0.227l0.021,0.165c0.016,0.125,0.029,0.3,0.029,0.532c0.012,2.759-1.508,27.723-3.986,37.615
			c-1.281,4.871-2.127,6.09-2.785,6.643c-0.711,0.59-6.145,4.84-12.098,9.201c-10.229,7.486-13.818,9.311-14.896,9.75
			c-0.332,0.119-0.639,0.203-0.924,0.273v3.42c0.592-0.109,1.342-0.287,2.119-0.572c6.129-2.428,26.676-18.455,27.938-19.508
			c1.57-1.307,2.621-3.578,3.881-8.377c2.6-10.318,4.109-35.527,4.098-38.457C79.319,8.113,77.938,7.613,76.479,7.083z"/>
		<path fill="#336AF2" d="M38.702,74.633c-0.291-0.072-0.602-0.158-0.939-0.279c-1.068-0.434-4.658-2.26-14.883-9.744
			c-6.004-4.395-11.402-8.621-12.098-9.201c-0.658-0.551-1.504-1.77-2.783-6.646c-2.473-9.84-4-34.843-3.99-37.615
			c0.002-0.229,0.014-0.402,0.029-0.526l0.02-0.169c0,0,0.459-0.174,0.609-0.229c0.195-0.072,0.414-0.151,0.658-0.248
			c5.381-1.888,13.002-3.299,22.043-4.08c5.066-0.438,9.217-0.567,11.334-0.605V1.947c-5.1,0.091-22.686,0.708-34.557,4.901
			C3.94,6.932,3.731,7.007,3.519,7.084c-1.461,0.529-2.842,1.029-2.852,4.053c-0.01,2.933,1.502,28.146,4.094,38.455
			c1.258,4.801,2.311,7.07,3.881,8.381c1.32,1.1,21.717,17.043,27.932,19.504c0.783,0.287,1.535,0.467,2.129,0.576V74.633z"/>
	</g>
</g>
</svg>
